<svg width="500" height="500" xmlns="http://www.w3.org/2000/svg">
 <g>
  <title>SaMoToP</title>
  <path fill="#ff6633" id="S" d="m127.8,194.9l0,1.8c0,0.1 -0.1,0.3 -0.2,0.4q-0.5,0.6 -2.9,1.5c-0.8,0.3 -1.6,0.6 -2.5,0.9q-1.1,0.4 -2.3,0.8c-0.9,0.3 -1.7,0.6 -2.6,0.9c-2.8,0.9 -5.5,1.7 -8.3,2.6c-0.2,0 -0.4,0.1 -0.6,0.2c-1.1,0.3 -2.2,0.6 -3.3,1q-1.5,0.5 -2.8,1c-0.5,0.2 -1.1,0.4 -1.6,0.7c-4,1.6 -8,3 -12.2,4.1c-4.1,1 -8.4,1.6 -12.7,1.6c-3.1,0 -6.3,-0.4 -9.3,-1.3c-3,-0.8 -6,-1.7 -8.9,-2.7c-3,-1.1 -6,-2 -9,-2.8c-3,-0.9 -6.1,-1.3 -9.3,-1.3c-0.4,0 -0.8,0 -1.3,0.1q-1.4,0.1 -3.4,0.5c-0.1,0 -0.2,0 -0.3,0q-2,0.4 -3.3,1c-0.5,0.2 -0.9,0.5 -1.3,0.8c-0.2,0.1 -0.4,0.3 -0.5,0.4q-0.4,0.5 -0.9,1.4c0,0.1 -0.1,0.2 -0.1,0.3q-0.6,1.3 -1.5,1.5c-0.1,0 -0.2,0 -0.3,0q-0.6,0 -1.6,-0.4c-0.1,0 -0.3,-0.1 -0.4,-0.2c-0.2,0 -0.4,-0.1 -0.6,-0.2q-0.9,-0.4 -1.3,-0.6c-2.2,-1.2 -4.2,-2.7 -5.7,-4.7q-2.4,-2.8 -4,-6.2q-1.6,-3.3 -2.3,-7.1c-0.4,-1.9 -0.7,-3.8 -0.7,-5.8c-0.1,-0.5 -0.1,-1 -0.1,-1.4c0,-1.7 0.2,-3.3 0.5,-4.9c0.4,-1.7 0.6,-3.3 0.6,-4.9c0,-2.4 -0.3,-4.7 -0.8,-6.9q-0.9,-3.4 -0.9,-6.9c0.1,-1.7 0.3,-3.4 0.9,-5q0.8,-2.5 0.8,-5c0,-1.2 -0.3,-2.5 -0.9,-3.6q-0.9,-1.7 -0.9,-3.6c0,-0.4 0.1,-0.8 0.3,-1.2c0.1,-0.4 0.4,-0.7 0.7,-1c0.2,-0.2 0.4,-0.4 0.6,-0.7c0.2,-0.4 0.3,-0.9 0.3,-1.3c0,-1.2 0,-2.3 -0.1,-3.5c-0.1,-1.2 -0.2,-2.4 -0.2,-3.5q0,-0.9 0.1,-2.6c0,-1.1 0.2,-2.2 0.4,-3.3q0.2,-1.6 1,-2.8q0.7,-1.1 2,-1.1q2.6,0 5.3,3.1c0,0.1 0,0.1 0.1,0.1c1.1,1.5 2.2,3 3.2,4.5c0.6,1.1 1.2,2.1 1.8,3.2c1.2,2.5 2.4,5.1 3.3,7.7c0.1,0.4 0.3,0.8 0.4,1.1c0.2,0.7 0.4,1.4 0.6,2.1q0.6,2 0.8,3.5c0,0.3 0.1,0.7 0.1,1c0,0.4 -0.1,0.7 -0.3,1c-0.1,0.1 -0.2,0.3 -0.3,0.4c-0.2,0.2 -0.5,0.4 -0.8,0.5c-0.2,0.1 -0.4,0.2 -0.7,0.2q0.5,0.8 1.1,2.4c0.1,0.2 0.1,0.4 0.2,0.6q0.8,2.1 0.8,3.3c0,1.1 -0.2,2.2 -0.6,3.3c-0.3,1.1 -0.5,2.3 -0.5,3.4c0,1 0.3,1.9 0.7,2.8c0.4,0.7 0.8,1.5 1.2,2.2c0.1,0.1 0.1,0.2 0.2,0.3c0.2,0.3 0.4,0.7 0.7,1q0.7,1 1.3,1.6q0.9,0.9 1.9,1.3c0.5,0.1 0.9,0.2 1.4,0.3c0.3,0.1 0.6,0.1 0.9,0.2c0.2,0 0.5,0 0.7,0q0.9,0.1 2.2,0.2c0.1,0 0.3,0.1 0.4,0.1q2.9,4.2 6.6,7.9c2.4,2.4 5.1,4.6 7.9,6.6q6.6,1.4 13,2.3q6.5,0.9 13.1,0.9q4.8,0 8.6,-0.9c0.3,-0.1 0.5,-0.2 0.8,-0.3c2.3,-0.6 4.5,-1.5 6.6,-2.6c0.3,-0.1 0.6,-0.3 0.9,-0.5c2.3,-1.2 4.5,-2.7 6.7,-4.3l6.7,-5q2.5,-1.8 5.3,-3.4c1.8,-1.1 3.6,-2.2 5.4,-3.4c1.7,-1.1 3.4,-2.4 5,-3.9c1.5,-1.4 2.9,-3 3.9,-4.9c0.4,-0.5 0.7,-1.1 1.2,-1.6q0.6,-0.7 1.3,-1.4c0.2,-0.2 0.4,-0.4 0.5,-0.5c0.5,-0.4 0.8,-0.9 1.2,-1.3c0.5,-0.9 0.8,-1.8 0.8,-2.8q0,-0.7 -0.1,-1.1c0,-0.1 0,-0.1 0,-0.2q-0.6,-4.7 -0.8,-9.1c-0.2,-3.1 -0.4,-6.2 -0.6,-9.2q-0.1,-2.8 -0.9,-4.7c-0.2,-0.7 -0.5,-1.4 -1,-2c-1,-1.5 -2.4,-2.8 -4,-3.8c-1.2,-0.8 -2.5,-1.5 -3.8,-2.2c-0.5,-0.3 -0.9,-0.5 -1.4,-0.8c-1.1,-0.6 -2.2,-1.3 -3.2,-2.1c-0.8,-0.6 -1.5,-1.3 -2.2,-2c-0.9,-0.9 -1.9,-1.7 -3.1,-2.3c-0.9,-0.6 -2,-1 -3.1,-1.2c-2.4,-0.5 -4.7,-0.8 -7.1,-0.9c-2.5,-0.1 -4.9,-0.2 -7.3,-0.5c-2.2,-0.2 -4.4,-1 -6.2,-2.3c-0.1,-0.2 -0.3,-0.3 -0.5,-0.4q-0.8,-0.6 -1.4,-0.6c-0.7,0 -1.4,0.2 -2,0.5c-0.2,0.1 -0.4,0.2 -0.6,0.3c-0.8,0.5 -1.7,0.8 -2.7,0.8c-1.4,0 -2.7,-0.1 -4,-0.5c-0.2,0 -0.3,0 -0.5,-0.1c-1.5,-0.3 -3,-0.8 -4.4,-1.3l-4.4,-1.4c-1.5,-0.5 -2.9,-0.9 -4.4,-1.1q-2.6,-0.4 -4.4,-0.5c-0.1,0 -0.2,0 -0.4,-0.1c-0.6,0 -1.3,-0.1 -1.9,-0.2c-0.5,-0.1 -1,-0.2 -1.4,-0.3c-0.6,-0.1 -1.1,-0.3 -1.6,-0.4c-0.6,-0.3 -1.2,-0.5 -1.7,-0.7c-0.4,-0.2 -0.8,-0.4 -1.2,-0.6q-1.4,-0.8 -3.2,-2c-5,-3.3 -10.5,-5.8 -16.3,-7.3c-0.7,-1.9 -1.6,-3.7 -2.6,-5.5c-0.5,-1 -1.1,-1.9 -1.6,-2.9c-1.1,-0.6 -2.1,-1.3 -3.1,-1.9c-0.1,0 -0.1,0 -0.1,-0.1q-1.5,-0.9 -3,-2.1q-0.9,-1.4 -2.3,-5.1c-0.6,-1.8 -1.3,-3.5 -1.8,-5.3c-0.3,-0.8 -0.6,-1.7 -0.9,-2.5c-0.4,-1.4 -0.8,-2.7 -1.2,-4.1c-0.4,-1.2 -0.7,-2.5 -1,-3.8c-0.2,-0.5 -0.3,-1.1 -0.5,-1.7q-0.3,-1.5 -0.4,-2.6c-0.1,-0.3 -0.1,-0.6 -0.1,-1c0,-1.9 0.2,-3.8 0.6,-5.6c0,-0.3 0.1,-0.5 0.1,-0.8c0.4,-1.5 1.1,-3 2.1,-4.2c0.4,-0.5 0.8,-0.9 1.3,-1.4q0.4,-0.3 1.1,-0.8c0.1,-0.1 0.3,-0.2 0.4,-0.4c0.2,-0.2 0.3,-0.5 0.3,-0.8c0,-0.3 -0.2,-0.5 -0.4,-0.7q-0.2,-0.2 -0.7,-0.4c-0.2,-0.1 -0.4,-0.2 -0.6,-0.3q-0.5,-0.4 -0.5,-1.3q0,-0.1 0.1,-0.4c0,0 0,0 0,-0.1c0,-0.1 0.1,-0.1 0.1,-0.2q0.1,-0.2 0.1,-0.4c0.6,-2.1 1.6,-4.2 2.9,-6c0,-0.1 0.1,-0.1 0.1,-0.2c1.4,-2 3,-3.8 4.7,-5.5c1.8,-1.8 3.6,-3.4 5.5,-4.9c1.2,-1 2.3,-1.9 3.5,-2.7c0.7,-0.5 1.3,-1 2,-1.5c1.2,-0.8 2.2,-1.9 3,-3c0.1,-0.1 0.2,-0.3 0.3,-0.4q1.1,-1.6 2.4,-2.5c0.2,-0.2 0.4,-0.3 0.6,-0.4q1,0 2.1,-0.1q1,-0.1 2,-0.1c0.4,0 0.7,0 1.1,0c0.4,0.1 0.7,0.1 1,0.1c0.4,0 0.7,0 1,0.1c0.4,0 0.8,0 1.2,0c0.2,-0.1 0.5,-0.2 0.8,-0.4q0.8,-0.4 1.2,-0.9c0.1,0 0.1,-0.1 0.1,-0.1c0.4,-0.5 0.8,-1 1.1,-1.5c0.1,0 0.1,0 0.1,-0.1c0.3,-0.3 0.7,-0.7 1.1,-0.9c0.2,-0.1 0.3,-0.2 0.5,-0.2q0.9,-0.5 3.2,-0.5c0.1,0 0.1,0 0.2,0q1.6,0 3.2,0.1q1.6,0.1 3.2,0.1c3.7,0 7.4,-0.1 11.1,-0.2c3.7,-0.1 7.4,-0.1 11.1,-0.1c2.6,0 5.2,0 7.8,0.1c2.6,0 5.2,0.2 7.8,0.6q2.7,0.3 5.2,1.1c1.6,0.5 3.2,0.8 4.9,0.8c0.1,0 0.2,0 0.3,0c0.5,0 0.9,0 1.3,0q1.4,-0.2 2.2,-0.8c0.1,0 0.2,-0.1 0.3,-0.2c0.4,-0.4 0.8,-0.9 1.2,-1.4c0.2,-0.2 0.4,-0.5 0.5,-0.8q0.7,-1.2 1.6,-2.2q0.8,-1 2.9,-1c0,0 0.1,0 0.1,0c1.3,0 2.6,0.2 3.9,0.6c0.9,0.2 1.7,0.6 2.5,1c1.1,0.5 2.1,1 3.2,1.5c1,0.4 2,0.8 3,1.1l-0.1,0.6c-0.2,0.6 -0.3,1.2 -0.4,1.8c0,0.4 0,0.8 0,1.1c0,1.7 0.2,3.4 0.8,5c0.5,1.5 1.1,3.1 1.6,4.7c0.6,1.6 1.2,3.1 1.7,4.7c0.5,1.5 0.8,3.1 0.8,4.7c0,0.1 0,0.2 0,0.3c0,0.6 0,1.3 -0.1,1.9c0,0.4 -0.1,0.7 -0.2,1.1q-0.2,1.4 -0.2,3c0,0.5 0,0.9 0,1.4q0.2,1.6 0.9,2.5c0.1,0.1 0.1,0.2 0.2,0.3c0.2,0.2 0.4,0.4 0.6,0.6q0.5,0.8 0.6,1.5c0,0 0,0.1 0,0.1c0,0.7 -0.3,1.3 -0.8,1.8c-0.1,0.1 -0.1,0.1 -0.2,0.2c-0.5,0.4 -0.8,0.9 -1,1.5c0,0.3 -0.1,0.6 -0.1,0.9c0,2.5 0.2,5.1 0.5,7.6c0.3,2.5 0.4,5 0.4,7.5q0,1 0,2.8c0,0.4 0,0.8 0,1.2c-0.1,1.7 -0.3,3.5 -0.6,5.2c-0.2,0.8 -0.4,1.6 -0.7,2.4c-0.2,0.7 -0.6,1.4 -0.9,2q-1.1,1.9 -3.2,1.9c0,0 0,0 0,0c-1,0 -1.9,-0.2 -2.8,-0.7c-0.5,-0.3 -1,-0.6 -1.4,-0.9q-2.1,-1.7 -3.4,-3.3c-0.9,-0.9 -1.6,-1.9 -2.1,-3c-0.3,-0.5 -0.5,-1 -0.7,-1.5c-0.6,-1.7 -1.1,-3.3 -1.5,-5.1q-0.5,-2.6 -1.3,-5.2c-0.5,-1.7 -1.2,-3.3 -2.2,-4.7q-2.3,-3.4 -4.4,-6.8c-1.5,-2.3 -2.9,-4.7 -4.2,-7c-0.3,-0.4 -0.5,-0.8 -0.8,-1.2q-1.1,-1.7 -2,-2.5c-0.4,-0.3 -0.8,-0.6 -1.3,-0.9c-0.4,-0.2 -0.8,-0.3 -1.2,-0.4q-1.3,-0.4 -3,-0.4c-0.4,0 -0.9,0 -1.3,-0.1q-0.7,0 -1.6,-0.1c-0.4,-0.1 -0.8,-0.2 -1.3,-0.3q-2.6,-0.4 -5.2,-1.3q-2.5,-0.8 -5.1,-1.7q-2.6,-0.8 -5.2,-1.4c-1.7,-0.5 -3.5,-0.7 -5.3,-0.7c-2.4,0 -4.9,0.3 -7.2,1c-0.5,0.1 -1,0.2 -1.4,0.3q-4.4,1.4 -8.8,3.3q-4.4,2 -8.6,4.1c-1.7,0.9 -3.5,1.7 -5.2,2.4c-1,0.5 -2,0.9 -3,1.2q-3.7,7.8 -3.7,16.7c0,1.4 0,2.8 0.2,4.2q0.3,3.7 1.3,6.4c0.5,1.4 1.1,2.9 2,4.2c0.5,1 1.2,1.9 2,2.7c1.7,2 3.7,3.7 5.8,5.1c1.2,0.7 2.3,1.5 3.4,2.3c1.2,0.8 2.4,1.6 3.6,2.4q3.8,2.5 7.5,3.3c1.7,0.3 3.3,0.5 5,0.7c1,0 2.1,0.1 3.2,0.1c1.6,0 3.2,-0.1 4.9,-0.2c1.6,-0.1 3.3,-0.1 4.9,-0.1q2.8,0 5.3,0.7c1.6,0.5 3.3,1.1 4.9,1.7c1.6,0.6 3.2,1.2 4.9,1.7c1.6,0.5 3.4,0.7 5.1,0.7c1.2,0 2.4,0 3.6,-0.2c0.4,0 0.8,0 1.2,-0.1q2.2,-0.3 4.6,-0.3c0.7,0 1.5,0.1 2.2,0.3c0.5,0.2 1,0.4 1.4,0.7c0.9,0.5 1.7,1 2.5,1.6c0.2,0.2 0.5,0.4 0.8,0.6q1.6,1.2 3.3,2.2q1.6,1.1 3.7,1.2c0.7,0.4 1.4,0.7 2,1.1q1.6,0.8 2.8,1.6c0.9,0.5 1.8,1.1 2.6,1.7c0.3,0.3 0.6,0.5 0.9,0.7c0.6,0.6 1.2,1.2 1.8,1.9c0.4,0.4 0.8,0.9 1.1,1.4q1,1.3 2.1,3c0.3,0.6 0.7,1.1 1.1,1.7q1.6,2.7 4.2,4.8q2.6,2 4.2,5c0.3,0.4 0.5,0.9 0.6,1.4c0.1,0.3 0.1,0.6 0.2,1q0.1,1.4 0.4,2.6c0.1,0.5 0.3,1 0.6,1.5c0.1,0.3 0.2,0.5 0.4,0.7c0.3,0.4 0.7,0.7 1.1,0.9q0.4,0.2 0.9,0.2c0,0 0.1,0 0.1,0c0.1,1.1 0.2,2.1 0.2,3.2q0.1,1.5 0.1,3.1c0,4.9 -0.3,9.8 -1,14.7c-0.6,4.8 -1.1,9.7 -1.4,14.6c-0.6,-0.7 -1.4,-1.2 -2.2,-1.7q-1.3,-0.6 -2.6,-0.6c-0.9,0 -1.8,0.2 -2.5,0.7c-0.2,0.1 -0.4,0.2 -0.6,0.3c-0.3,0.2 -0.6,0.5 -0.8,0.8c-0.4,0.5 -0.6,1.2 -0.6,1.8q0,1.8 1.7,2.4c1.1,0.4 2.2,0.6 3.4,0.6c0.2,0 0.4,0 0.7,0q0.9,-0.1 1.3,-0.2c0,0 0,0 0,0c0,0.8 -0.1,1.6 -0.4,2.3c-0.1,0.5 -0.3,0.9 -0.5,1.3c-0.5,1 -1.2,2 -1.8,2.9c-0.2,0.3 -0.4,0.5 -0.5,0.7q-1.4,1.8 -3,3.3l-2.7,2.7q-0.6,0.6 -1.2,1.5c-0.3,0.3 -0.5,0.7 -0.7,1q-1,1.6 -2.3,3.1c-0.4,0.6 -0.9,1.2 -1.5,1.7c-0.3,0.4 -0.7,0.7 -1,1c-0.3,0.2 -0.6,0.4 -1,0.6q-0.6,0.3 -1.2,0.4c-0.1,0.1 -0.3,0.1 -0.5,0.1c-0.3,0 -0.6,-0.1 -1,-0.1c-0.5,-0.1 -0.9,-0.4 -1.3,-0.7q-0.9,-0.8 -2.1,-0.8q-1.6,0 -1.9,1.7c-0.2,0.9 -0.4,1.8 -0.4,2.8c0,0.1 0,0.3 0,0.4z"/>
  <path fill="#cc66cc" id="a" d="m233.25,20.5l4.5,-0.1c4,0 8.1,0.3 12.1,0.9c0.2,0.1 0.5,0.1 0.8,0.2c4.4,0.7 8.7,1.9 12.9,3.4c4.1,1.6 8.1,3.5 11.9,5.8c3.7,2.2 7.1,5 10.1,8.1c1.7,2 3.3,4.2 4.5,6.6c0.3,0.5 0.5,1.1 0.8,1.7q2.1,4.8 3.4,10c0.8,3.5 1.4,7.1 1.7,10.7c0.2,1.7 0.3,3.4 0.4,5.1c0.1,1.6 0.1,3.2 0.1,4.8c0,4 -0.1,8 -0.3,12c-0.3,4.1 -0.4,8.1 -0.4,12.1c0,3.9 0.2,7.8 0.7,11.7q0.6,5.8 1.5,11.5c0.6,3.9 1.1,7.7 1.5,11.6c0.5,3.8 0.7,7.7 0.7,11.5c0,0.4 0.1,0.8 0.1,1.2q0.3,2.5 0.9,3.1q0.6,0.8 1.3,0.8q3.3,0 5.2,-1.9c1.4,-1.4 2.6,-2.9 3.6,-4.4q1.6,-2.5 3.6,-4.5c1.1,-1.3 2.8,-2 4.5,-2c0.1,-0.1 0.2,-0.1 0.3,-0.1c0.8,0 1.7,0.1 2.5,0.2c0.1,0 0.1,0 0.2,0c0.6,0.1 1.3,0.2 1.9,0.4c0.2,0.1 0.4,0.2 0.7,0.3c0.5,0.2 1,0.5 1.4,0.9c0.2,0.2 0.3,0.3 0.5,0.5c0.2,0.4 0.4,0.8 0.5,1.2q0.2,0.4 0.2,1c0,0.1 0,0.3 0,0.4c0,1.6 -0.3,3.2 -0.9,4.7q-0.9,2.2 -1.6,4.5c-0.1,0.4 -0.2,0.8 -0.3,1.2q-0.3,1.3 -0.5,2.2c0,0 0,0 0,0q-0.2,1.2 -0.6,2.1c0,0 0,0.1 -0.1,0.1c-0.1,0.5 -0.4,0.8 -0.7,1.2c-0.2,0.2 -0.4,0.4 -0.6,0.6c-0.3,0.2 -0.5,0.4 -0.7,0.5q-0.7,0.5 -1.7,1c-0.2,0.1 -0.4,0.2 -0.7,0.3c-2.2,1.3 -4.5,2.4 -6.8,3.6c-0.8,0.4 -1.6,0.8 -2.5,1.2c-1.9,1 -4,1.7 -6.1,2.1c-1.2,0.2 -2.5,0.3 -3.7,0.3q-4.3,0 -8,-2q-3.8,-1.9 -6.9,-4.4c-1,-0.7 -2,-1.5 -3,-2.3c-0.9,-0.7 -1.8,-1.4 -2.7,-2.1c-0.4,-0.3 -0.8,-0.6 -1.3,-0.9q-1.3,-0.9 -2.4,-1.1c-0.2,-0.1 -0.4,-0.1 -0.6,-0.1c-0.7,0 -1.3,0.1 -1.9,0.3c-0.5,0.2 -1,0.4 -1.4,0.8c-1,0.7 -1.9,1.4 -2.8,2.1q-1.4,1.2 -3.1,2.2c-0.6,0.4 -1.3,0.7 -2.1,0.9q-0.9,0.2 -1.9,0.2c0,0 -0.1,0 -0.2,0c-0.9,0 -1.9,0.1 -2.9,0.3c-0.4,0.1 -0.9,0.3 -1.3,0.4c-1.5,0.5 -3,1.1 -4.4,1.7q-2.2,0.9 -4.5,1.9q-2.3,0.9 -4.2,1.5q-6.6,1.8 -13.2,2.1q-6.7,0.3 -13.4,0.3c-0.4,0 -0.7,0 -1,0q-1.7,0 -4.3,-0.1c-0.1,0 -0.1,0 -0.1,0c-2.5,-0.1 -5,-0.3 -7.4,-0.7c-1.3,-0.2 -2.5,-0.6 -3.8,-1c-0.9,-0.3 -1.9,-0.7 -2.8,-1.2c-0.5,-0.2 -1,-0.5 -1.4,-0.9c-1,-0.8 -1.5,-1.9 -1.5,-3.2c0,-0.1 0,-0.3 0,-0.4q0.1,-0.3 0.1,-0.5c0,0 0.1,-0.1 0.1,-0.1c-0.7,0.8 -1.5,1.4 -2.4,1.9q-1.3,0.8 -2.9,0.8c-0.6,-0.1 -1.1,-0.2 -1.7,-0.4q-1.8,-0.7 -4,-2.9c-1.6,-1.5 -3.1,-3.1 -4.5,-4.9c-0.7,-0.8 -1.3,-1.7 -2,-2.5c-1.3,-1.9 -2.6,-3.9 -3.8,-5.8c-0.5,-0.9 -1,-1.8 -1.4,-2.7q-1.7,-3.1 -2.1,-5c-0.1,-0.4 -0.1,-0.8 -0.1,-1.2c0,-1 0.3,-2.1 0.9,-2.9c0.6,-0.9 1,-1.9 1,-2.9c0,-1.1 -0.1,-2.1 -0.3,-3.1c-0.1,-0.3 -0.2,-0.6 -0.3,-0.8c-0.2,-1.1 -0.4,-2.2 -0.5,-3.3c0,-0.2 0,-0.4 0,-0.6q0,-2.6 1.1,-5.6q1,-3.1 2.5,-6.1c0.9,-1.9 1.9,-3.9 3,-5.8c0.5,-0.9 1.1,-1.9 1.6,-2.8c0.4,-0.8 0.9,-1.7 1.4,-2.6c0.9,-1.9 2.3,-3.5 4.1,-4.6c1.7,-1.2 3.6,-2.3 5.5,-3.1l5.9,-2.7c1.9,-0.8 3.6,-2 5.1,-3.5c1.3,1.6 3.2,2.5 5.3,2.5c0.1,0 0.3,0 0.4,0q3.7,0 7.2,-1.1q3.5,-1.1 7.2,-1.1c1.8,0 3.7,0.2 5.5,0.6c0,0 0.1,0 0.1,0c1.8,0.4 3.6,0.6 5.5,0.6c0,0 0.1,0 0.2,0c0.5,0 1.1,0 1.6,-0.1q2,-0.1 3.1,-0.7q1.4,-0.7 3.5,-2.5c0.1,-0.1 0.3,-0.2 0.4,-0.4c1,-0.8 2,-1.5 3.2,-2.1c0.9,-0.4 1.8,-0.7 2.7,-1c2.5,-0.8 5,-1.4 7.5,-1.8q3.9,-0.6 7.8,-1.4c1.4,-0.2 2.7,-0.6 4.1,-1c0.9,-0.3 1.9,-0.7 2.8,-1.1c1.2,-0.5 2.3,-1.2 3.3,-2.1c0.7,-0.5 1.2,-1.1 1.7,-1.7c0.6,-0.8 1.1,-1.8 1.4,-2.8q0.4,-1.1 0.5,-2.5c0,-0.5 0,-0.9 0,-1.4c0,-1.8 -0.3,-3.5 -0.8,-5.3q-0.6,-2.1 -1.7,-4.3c-0.1,-0.1 -0.1,-0.2 -0.2,-0.3q-2.7,-5.2 -7,-9.5c-2.7,-2.8 -5.9,-5.2 -9.3,-7.1c-1.4,-0.7 -2.8,-1.4 -4.3,-1.8q-2.7,-0.9 -5.2,-1c-0.1,0 -0.2,0 -0.3,0c-0.4,0 -0.8,0.1 -1.2,0.2c-0.2,0 -0.3,0 -0.4,0.1q-0.4,0 -0.6,0q-3.6,0.6 -8,0.8c-1.9,0.1 -3.8,0.4 -5.7,0.7c-0.8,0.2 -1.6,0.4 -2.5,0.6c-1.6,0.5 -3.1,1.2 -4.4,2.1c-0.7,0.5 -1.4,1 -2,1.6c-1,1 -1.7,2.2 -2.1,3.5q-0.5,1.8 -0.5,4.1c0,1.9 0.1,3.8 0.5,5.7c0.3,1.9 0.5,3.9 0.5,5.8c0,1.1 -0.1,2.3 -0.4,3.4c-0.3,1.4 -0.9,2.8 -1.7,4c-1.5,1.9 -3.3,3.5 -5.5,4.6c-2,1.1 -4.1,1.9 -6.3,2.3c-0.3,0.1 -0.6,0.1 -0.9,0.2c-1.9,0.3 -3.8,0.5 -5.8,0.6c-0.6,0 -1.2,0 -1.8,0q-4,0 -7.1,-1c-0.2,0 -0.3,-0.1 -0.5,-0.2c-1.2,-0.4 -2.2,-1.1 -3.1,-2q-0.8,-0.9 -1.6,-2.2c-0.2,-0.4 -0.4,-0.8 -0.6,-1.2c-0.6,-1 -1.1,-2.1 -1.7,-3.2c-0.6,-1.1 -1.2,-2.3 -1.8,-3.4c-0.7,-1.4 -1.2,-2.9 -1.5,-4.4c-0.2,-1 -0.3,-1.9 -0.3,-2.9c0,-2.1 0.3,-4.1 0.9,-6.1c0.2,-0.4 0.3,-0.9 0.5,-1.3c0.9,-2.3 2,-4.5 3.2,-6.7q1.7,-3.3 3.4,-6.6q1.7,-3.3 2.4,-7.1c0.2,-0.2 0.5,-0.3 0.7,-0.4q0.9,-0.4 2,-0.7c0.1,-0.1 0.1,-0.1 0.2,-0.1c0.8,-0.3 1.6,-0.5 2.4,-0.7c0.5,-0.2 1,-0.3 1.5,-0.5c1.1,-0.3 2.1,-0.5 3.1,-0.8c0.4,-0.1 0.7,-0.2 1,-0.3q2,-0.5 3.3,-0.9q3.5,-1 6.8,-2.4q3.3,-1.4 6.8,-2.6q3.4,-1.2 6.9,-2.1q3.4,-0.8 7.1,-1zm46.1,88.2c0,-0.2 0,-0.3 0,-0.5q0,-0.8 -0.1,-2.2c0,-0.1 0,-0.3 0,-0.4c0,-1.5 -0.1,-3 -0.3,-4.4c-0.1,-0.8 -0.3,-1.5 -0.4,-2.2c-0.2,-0.6 -0.4,-1.2 -0.6,-1.9q-0.3,-0.9 -0.8,-1.3c-0.4,-0.3 -0.8,-0.4 -1.2,-0.4q-0.3,0 -0.7,0.2c-0.1,0 -0.2,0.1 -0.2,0.1q-0.3,0.1 -0.5,0.1c0,0 0,0 0,0q-3.9,2.1 -6.9,3.7c-0.9,0.5 -1.8,0.9 -2.7,1.4c-1.9,1 -4,1.9 -6.1,2.6c-0.6,0.2 -1.1,0.4 -1.7,0.6c-2.2,0.7 -4.4,1.2 -6.6,1.5c-0.6,0.1 -1.1,0.1 -1.7,0.2q-3,0.3 -7,0.4c-1.3,0 -2.6,0 -4,0c-0.1,0 -0.2,0 -0.4,0q-1.1,0.1 -3.9,0.7c-0.2,0 -0.3,0 -0.5,0c-1.4,0.3 -2.7,0.6 -4.1,0.8c-1.5,0.3 -3,0.6 -4.5,0.9c-1.5,0.3 -3.1,0.7 -4.6,1c-1.4,0.3 -2.8,0.6 -4.2,0.9c-0.5,0.1 -1,0.3 -1.4,0.4q-2.7,0.6 -3.6,0.8c0,0.1 -0.1,0.1 -0.1,0.1c-0.4,0.1 -0.7,0.2 -1,0.4q-0.9,0.4 -1.5,0.8c-0.1,0.1 -0.2,0.2 -0.3,0.2c-0.3,0.3 -0.6,0.7 -0.8,1c-0.2,0.2 -0.3,0.4 -0.4,0.7c-0.3,0.5 -0.5,1 -0.8,1.6c0,0 0,0.1 -0.1,0.2q-0.4,0.9 -1.6,2c-0.9,0.7 -2,1.4 -3.1,1.9c-0.9,0.3 -1.6,0.8 -2.3,1.4c-0.3,0.2 -0.6,0.5 -0.9,0.8c-0.7,0.7 -1.4,1.5 -2,2.3q-0.8,1.2 -1.6,2.5c-0.2,0.3 -0.3,0.6 -0.5,1c-0.5,0.9 -0.9,1.8 -1.2,2.8q-0.6,1.8 -0.7,3.5c0,0.1 0,0.3 0,0.5c0,1.5 0.3,3.1 0.8,4.5c0.3,0.9 0.7,1.7 1.3,2.5q2,3.1 5.4,5.3c1.6,1 3.2,1.9 5,2.7c0.8,0.4 1.7,0.7 2.6,1.1q4.2,1.6 8.6,2.5c2.1,0.4 4.2,0.8 6.3,1c0.7,0.1 1.3,0.2 2,0.3q3.1,0.3 5.5,0.4c0.5,0 1,0 1.5,0c0.9,0 1.9,0 2.8,0q1.6,-0.1 3.3,-0.3c0.8,0 1.5,-0.1 2.2,-0.2c3.3,-0.3 6.5,-0.9 9.7,-1.6c2.7,-0.6 5.4,-1.5 8,-2.5c0.4,-0.2 0.7,-0.3 1.1,-0.5c1.2,-0.5 2.4,-1.2 3.5,-2c1.2,-0.8 2.3,-1.7 3.2,-2.8q0.7,-0.9 1.2,-1.6c0.1,-0.2 0.2,-0.4 0.3,-0.6q0.4,-0.9 0.9,-1.9c0.2,-0.4 0.5,-0.8 0.7,-1.2c0.2,-0.2 0.3,-0.5 0.5,-0.7c0.2,-0.3 0.4,-0.6 0.6,-0.8q0.3,-0.4 0.7,-0.8c0.3,-0.2 0.6,-0.4 0.8,-0.6c1.2,-1 2.3,-2.1 3.3,-3.4c0.7,-0.8 1.4,-1.8 1.9,-2.8c1.2,-2.2 2.1,-4.6 2.7,-7q0.9,-3.7 1.1,-7.6c0.1,-2.7 0.1,-5.4 0.1,-8.1z"/>
  <path fill="#ff6633" id="M" d="m375.3,28.8l3.7,10.4q0.4,1.6 0.9,3.3c0.3,0.9 0.5,1.9 0.7,2.8c0.1,0.2 0.1,0.4 0.1,0.5c0.6,0.5 1,1 1.4,1.6q0.7,1 1.1,2.4c0.5,1.4 0.9,3 1.1,4.5c0.1,0.4 0.1,0.7 0.2,1.1c0.2,2 0.4,4 0.5,6c0,0.6 0,1.3 0.1,2q0.1,1.6 0.3,2.9c0.3,2.3 0.8,4.4 1.5,6.6q1.1,3.1 1.1,6.5c0,1.4 -0.2,2.7 -0.6,4.1c-0.5,1.3 -0.7,2.8 -0.7,4.2q0,3.8 1,7.5q1.1,3.7 2.4,7.2q1.3,3.6 2.4,7.3q1.1,3.7 1.3,7.5c0,0.3 0,0.6 0,1q0,1.6 0.3,4.4c0.2,1.3 0.3,2.6 0.5,3.8c0.1,1.5 0.3,2.9 0.5,4.3c0.4,2.3 0.8,4.6 1.2,6.9c0.1,0.8 0.3,1.6 0.5,2.3q0.9,4.8 2.3,8.8c0.3,0.9 0.7,1.8 1.1,2.7q1,2.1 2.1,3.7c0.3,0.4 0.7,0.8 1.1,1.2q0.7,0.6 1.4,0.9c0.5,0.3 1,0.4 1.6,0.4c0.3,0 0.7,0 1.1,-0.1q0.6,-0.1 1.1,-0.3c0.5,-0.2 0.9,-0.6 1.1,-1.1c0.3,-0.7 0.5,-1.3 0.7,-1.9c0.1,-0.6 0.2,-1.2 0.2,-1.7c0.1,-1.4 0.2,-2.8 0.4,-4.1c0.1,-0.5 0.3,-1 0.5,-1.4c0.3,-0.7 0.9,-1.2 1.6,-1.6q1.5,-0.8 2.6,-3.4q1.1,-2.6 1.8,-5.7c0.4,-1.8 0.7,-3.6 1,-5.4c0,-0.3 0.1,-0.5 0.1,-0.8q0.3,-2.3 0.4,-3.8c0,-0.2 0.1,-0.5 0.1,-0.8c0.3,-5.1 0.4,-10.3 0.4,-15.4c0,-0.1 0,-0.2 0,-0.3q0,-8 0.3,-16.1q0.3,-8.2 1.3,-16q1.1,-7.9 3.4,-15.2c0.3,-0.8 0.7,-1.5 1.2,-2.2c0.5,-0.7 1,-1.4 1.5,-2.1c0.3,-0.5 0.6,-1.1 0.9,-1.6c0.1,-0.2 0.2,-0.4 0.3,-0.6c0.3,-0.6 0.5,-1.3 0.5,-2c0,-0.1 0,-0.3 0,-0.4c0,-0.3 0,-0.6 -0.1,-0.9c-0.1,-0.2 -0.2,-0.4 -0.3,-0.7c-0.2,-0.2 -0.3,-0.4 -0.5,-0.6c-0.2,-0.2 -0.3,-0.3 -0.5,-0.4c-0.2,-0.3 -0.5,-0.5 -0.7,-0.7c-0.1,-0.1 -0.2,-0.2 -0.2,-0.2c-0.2,-0.2 -0.3,-0.3 -0.4,-0.5c0,-0.2 -0.1,-0.4 -0.1,-0.6c0,-0.1 0,-0.2 0.1,-0.4q0,-0.3 0.2,-0.5c0,0 0.1,-0.1 0.2,-0.2q0.4,-0.3 0.8,-0.8c0.7,-0.8 1.3,-1.7 1.7,-2.7q0.5,-1.2 0.7,-2.7c0.1,-0.3 0.2,-0.7 0.2,-1.1c0.2,-1.8 0.4,-3.6 0.5,-5.4c0.1,-1.2 0.1,-2.3 0.2,-3.5q0.1,-4.8 0.3,-9.4q0.3,-4.6 1.9,-7.8c0.5,0.2 1.1,0.4 1.7,0.5c0.5,0.1 1.1,0.2 1.6,0.2c1.4,0 2.7,-0.3 4,-0.8c1.2,-0.5 2.5,-1.1 3.7,-1.7q1.9,-0.9 3.8,-1.7q2,-0.8 4.2,-0.8c0.3,0 0.5,0 0.8,0c0.3,0.1 0.5,0.1 0.8,0.1c0.3,0 0.6,0 0.9,0.1c0.2,0 0.5,0 0.7,0c1.2,0 2.3,-0.2 3.4,-0.5c0.7,-0.2 1.3,-0.5 1.9,-0.8q2.3,-1.4 4.8,-1.4c0.2,0 0.4,0 0.6,0.1q0.5,0.1 0.9,0.3c0,0 0,0.1 0,0.1c0.1,0.1 0.2,0.2 0.3,0.4q0.2,0.2 0.3,0.4c0,0 0.1,0 0.1,0.1c0.1,0.2 0.2,0.5 0.4,0.7c0,0.1 0,0.1 0.1,0.1c0.1,0.3 0.4,0.4 0.7,0.5c0,0 0.1,0 0.2,0c1.6,0 3.3,-0.2 4.9,-0.6c0.1,0 0.1,0 0.1,0c1.6,-0.4 3.3,-0.6 4.9,-0.6c0.1,0 0.1,0 0.2,0q1.6,0 2.6,0.4q1,0.3 2,1.7c0,0.1 0,0.1 0,0.1q1.2,1.8 3.3,2.3l4.1,1c0.7,0.2 1.3,0.4 2,0.7c0.5,0.2 1.1,0.5 1.6,0.8q1.3,0.8 1.5,2.9c0,0.1 0,0.3 0,0.5c0,0.8 -0.1,1.6 -0.2,2.4q-0.4,3 -2,4.4c-0.1,0.1 -0.2,0.2 -0.3,0.2c-1.5,1.2 -3.3,2 -5.2,2.5c-0.2,0 -0.4,0.1 -0.6,0.1q-3.3,0.7 -6.4,1.2c-0.7,0.1 -1.3,0.3 -2,0.5c-1,0.5 -1.9,1.3 -2.5,2.3c-1,1.7 -1.6,3.5 -1.7,5.4c-0.2,2 -0.7,3.9 -1.5,5.8c-0.2,0.4 -0.3,0.8 -0.5,1.2c-0.1,0.3 -0.2,0.6 -0.2,1c-0.2,0.5 -0.3,1.1 -0.3,1.6c0,0.2 0,0.4 0,0.6c0,1.5 0.2,3 0.5,4.5c0.4,1.5 0.9,2.9 1.4,4.3c0.6,1.4 1.1,2.9 1.6,4.3c0.5,1.5 0.8,2.9 1,4.4c0.6,5.3 0.9,10.6 0.9,15.9c0,3.1 -0.2,6.2 -0.5,9.3q-0.5,4.7 -1.1,9.4q-0.6,4.7 -1.1,9.3c-0.4,3 -0.5,6.1 -0.5,9.2c0,0.9 -0.2,1.7 -0.4,2.6c-0.3,1.2 -1,2.2 -1.8,3.1l-0.2,3.3c0,2.9 0.2,5.7 0.6,8.5c0.4,2.9 0.8,5.7 1.3,8.5q0.8,4.1 1.3,8.4c0.4,2.8 0.6,5.6 0.6,8.5c0,3.8 -0.5,7.6 -1.6,11.3c-1.1,3.6 -1.6,7.4 -1.6,11.2c0,0.9 0.1,1.8 0.2,2.7q0.2,1.5 0.7,2.6c0.3,0.5 0.5,1 0.9,1.5c0.6,0.8 1.4,1.4 2.3,1.8q1.7,0.7 4.1,0.7c1.4,0 2.8,-0.1 4.2,-0.3c1.4,-0.1 2.8,-0.2 4.2,-0.2q2,0 4.2,0.5q2.2,0.4 3.8,2c0,0.1 0,0.3 0,0.4q0.1,0.5 0.2,1.4q0.3,1.1 0.3,2.2q0.1,1.1 0,1.8c0,0 0,0 0,0.1q-0.2,0.7 -0.8,0.3c-0.2,0.9 -0.6,1.8 -1.1,2.7c-0.5,0.8 -1.1,1.5 -1.9,2.2c-1.4,1.2 -3,2.1 -4.7,2.8c-0.1,0 -0.1,0 -0.2,0c-1.7,0.7 -3.5,1.1 -5.3,1.4c-0.2,0 -0.4,0 -0.6,0c-1.3,0.2 -2.6,0.3 -3.8,0.3c-0.7,0.1 -1.4,0.1 -2.2,0.1c-2.7,0 -5.5,-0.2 -8.3,-0.5c-2.8,-0.4 -5.5,-0.8 -8.2,-1.3c-0.6,0 -1.2,-0.1 -1.8,-0.2q-0.8,0 -1.7,-0.1c-0.7,0 -1.3,-0.1 -2,-0.1c-2.2,-0.1 -4.4,-0.3 -6.5,-0.7q-3.2,-0.6 -5.5,-2.2q-2.3,-1.5 -2.3,-4.7q0,-3.7 1.5,-5.4c0.9,-1.1 2.2,-1.9 3.6,-2.3c1,-0.3 2,-0.5 3,-0.6c0.6,-0.1 1.2,-0.2 1.9,-0.2q2.6,-0.2 4.8,-1c1.5,-0.5 2.7,-1.4 3.7,-2.6c0.3,-0.5 0.6,-1 0.8,-1.6q0.6,-1.5 0.6,-3.6c0,-0.3 0,-0.5 0,-0.7c0,-1.8 -0.1,-3.6 -0.5,-5.3q-0.5,-2.7 -1.1,-5.2q-0.6,-2.6 -1.1,-5.1c-0.3,-1.8 -0.5,-3.5 -0.5,-5.2c0,-0.7 0.1,-1.3 0.3,-1.9q0.3,-0.9 0.8,-1.9q1.1,-2 1.1,-4.4c0,-1.9 -0.1,-3.7 -0.3,-5.5c-0.1,-1 -0.2,-2 -0.4,-3c-0.4,-1.9 -0.8,-3.7 -1.4,-5.5c-0.3,-0.9 -0.6,-1.8 -1,-2.7q-1,-2.8 -1,-5.2c0,-1.4 0.3,-2.9 1,-4.2c0.6,-1.4 0.9,-2.9 0.9,-4.4q0,-3.1 -1,-5.9q-1,-2.9 -1,-6c0,-2.7 0.3,-5.4 0.8,-8c0.6,-2.7 0.9,-5.4 0.9,-8.1c0,-1 0,-1.9 -0.1,-2.9c-0.1,-1.1 -0.3,-2.2 -0.5,-3.2c-0.4,-2.3 -0.9,-4.6 -1.5,-6.9c-0.6,-2.2 -1.3,-4.5 -2,-6.7q-1,-3.3 -1.9,-5.9c0,0 0,0 0,0q-2.9,1.3 -4.7,3.4c-1.3,1.4 -2.3,3 -3,4.8q-1.1,2.6 -1.7,5.5c-0.4,1.7 -0.7,3.4 -1,5.1c-0.1,0.2 -0.1,0.4 -0.1,0.7q-1.1,5.7 -3.2,11.1c-1.4,3.6 -2.4,7.3 -3,11.1c-0.8,4.6 -1.2,9.3 -1.4,13.9c-0.1,4.6 -0.4,9.2 -0.7,13.7c-0.3,4.6 -0.9,9.1 -1.7,13.6c-0.7,3.7 -1.7,7.4 -3.2,10.9c-0.3,0.9 -0.7,1.7 -1,2.6q-1.2,2.4 -1.5,4.6c0,0 0,0 0,0c-0.2,1.5 -0.3,3 -0.3,4.4c0,0.1 0,0.1 0,0.2c0,1.4 0.1,2.7 0.1,4.1q0.2,2 0.2,4.2c0,0.8 0,1.6 -0.1,2.4q-0.2,2.8 -0.9,4.4c-0.2,0.7 -0.5,1.2 -0.8,1.8q-0.6,1.1 -1.3,2c-0.8,0.9 -1.5,1.9 -2.3,2.8c-0.3,0.4 -0.6,0.8 -0.8,1.3q-0.3,0.6 -0.6,1.4c-0.1,0.5 -0.3,1 -0.4,1.5c-0.1,0.8 -0.4,1.5 -0.9,2.2c-0.4,0.5 -0.9,1 -1.5,1.4c-0.8,0.5 -1.6,0.9 -2.4,1.3c-0.7,0.3 -1.5,0.5 -2.2,0.8c-1.7,0.5 -3.5,0.9 -5.3,1.3c-0.6,0.1 -1.2,0.2 -1.8,0.4q-1,0.3 -1.8,0.6c-0.3,0.1 -0.5,0.2 -0.8,0.4c-1,-2.3 -2.3,-4.4 -3.9,-6.3q-2.2,-3 -4.1,-6.2q-2.1,-3.4 -2.6,-7.2c-0.4,-2.6 -1,-5.1 -1.8,-7.6c-0.2,-0.5 -0.4,-1.1 -0.7,-1.6c-0.2,-0.5 -0.4,-1 -0.7,-1.5q-0.8,-1.3 -1.5,-2.7q-0.6,-1.4 -1.2,-2.8q-0.4,-1.3 -0.5,-3c0,-0.2 0,-0.4 0,-0.5q0,-1.6 0.2,-3c0,-0.6 0.1,-1.2 0.1,-1.8c0,-0.4 0,-0.8 0,-1.2c0,-1.5 -0.1,-2.9 -0.4,-4.4c-0.2,-1 -0.4,-2.1 -0.8,-3.1c-1.4,-4.6 -2.7,-9.1 -3.8,-13.8c-0.1,-0.3 -0.2,-0.6 -0.3,-0.9c-1,-4.2 -1.7,-8.5 -2.2,-12.8c-0.1,-0.8 -0.2,-1.5 -0.2,-2.3q-0.8,-7.1 -1.2,-14.5c-0.3,-4.8 -1.3,-9.6 -3.1,-14.2c-0.9,-2.2 -1.9,-4.3 -3.1,-6.4c-1.1,-2.1 -2.1,-4.2 -2.9,-6.5c-0.1,-0.1 -0.1,-0.3 -0.2,-0.4q-0.1,-0.5 -0.2,-1.2c0,-0.2 -0.1,-0.5 -0.1,-0.7c-0.1,-0.8 -0.3,-1.6 -0.4,-2.4c-0.1,-0.4 -0.1,-0.7 -0.2,-1q-0.4,-1.7 -0.9,-3.1c0,-0.2 -0.1,-0.4 -0.2,-0.6q-0.4,-0.8 -0.8,-0.9c0,0 -0.1,0 -0.1,-0.1q-0.7,0.6 -1,1.6c0,0.1 0,0.2 0,0.2q-1,2.6 -1.6,3.6c0,0.1 0,0.1 0,0.1q-0.5,0.8 -0.9,1.3c0,0.1 -0.1,0.2 -0.2,0.4c-0.2,0.2 -0.4,0.4 -0.6,0.6q-0.3,0.4 -0.7,0.7c-0.1,0.2 -0.2,0.3 -0.4,0.5q-0.4,0.5 -1,1.3c-0.2,0.3 -0.4,0.6 -0.6,0.9q-1.2,1.6 -1.2,3.5q0,3.4 1.5,6.5q1.5,3.2 1.5,6.5c-0.1,0.9 -0.2,1.7 -0.4,2.5c-0.1,0.3 -0.1,0.6 -0.2,0.8c-0.3,0.7 -0.5,1.5 -0.6,2.2c0,0.4 0,0.8 0,1.1c0,2.9 0.4,5.7 1.2,8.4c0.8,2.8 1.3,5.6 1.3,8.5q0,3.3 -1.1,6.5c-0.6,2.1 -1,4.3 -1,6.5q0,3.5 0.8,7c0.6,2.2 0.8,4.6 0.8,6.9c0,1.9 -0.1,3.7 -0.5,5.5c0,0 0,0.1 -0.1,0.2q-0.5,2.7 -1.2,5.5q-0.7,2.7 -1.2,5.5c-0.4,1.9 -0.6,3.8 -0.6,5.7q0,5.3 1.8,7.9c0.2,0.2 0.3,0.4 0.5,0.6q2.4,2.5 5.7,3.8c2.2,0.9 4.5,1.8 6.8,2.6c1.8,0.7 3.5,1.8 4.8,3.2c0.4,0.5 0.8,0.9 1.2,1.4c-0.9,1.5 -1.6,3.1 -2,4.8c-0.4,1.7 -1.1,3.3 -2,4.7c-0.2,0.4 -0.5,0.8 -0.7,1.1q-0.4,0.5 -0.9,0.9c-0.2,0.3 -0.5,0.5 -0.8,0.7c-0.4,0.2 -0.9,0.5 -1.4,0.6c-0.4,0.2 -0.7,0.3 -1.1,0.3c-0.4,0.1 -0.9,0.2 -1.3,0.2c-0.5,0.1 -0.9,0.2 -1.4,0.3c-0.5,0.1 -1.1,0.2 -1.6,0.4q-0.7,0.2 -1.5,0.7c0,0 0,0 0,0c-0.3,0.1 -0.6,0.3 -0.9,0.5q-0.8,0.5 -1.2,1c-0.1,0.1 -0.1,0.1 -0.2,0.1c-0.2,0.3 -0.4,0.6 -0.6,0.8c-0.2,0.3 -0.4,0.5 -0.6,0.7c-0.2,0.2 -0.4,0.4 -0.7,0.6q-0.3,0.2 -0.8,0.4c0,0 -0.1,0 -0.2,0c-0.2,0.1 -0.5,0.2 -0.7,0.2q-0.8,0.2 -1.9,0.2c-0.3,0 -0.6,0 -0.8,0c-1.7,0 -3.4,-0.2 -5,-0.6c-1.6,-0.4 -3.3,-0.6 -5,-0.6c-1.7,0 -3.5,0.3 -5.1,0.8q-2.5,0.8 -5.1,0.8c-2,0 -4,-0.3 -5.9,-1c-0.1,0 -0.2,0 -0.3,-0.1q-3.1,-1.1 -5.5,-3c-1.6,-1.3 -2.9,-2.9 -3.9,-4.7q-1.6,-2.7 -1.6,-6.1c0,-1 0.1,-1.9 0.2,-2.9q0.2,-1.4 0.7,-2.6c0.3,-0.8 0.7,-1.5 1.2,-2.1c1.4,-1.8 3.1,-3.2 5.2,-4.2c1.7,-0.8 3.4,-1.5 5.2,-2.1c0.5,-0.2 1.1,-0.4 1.6,-0.5c2.4,-0.7 4.7,-1.7 6.9,-2.9c0.5,-1.6 0.8,-3.3 0.9,-5c0,-1.8 0.1,-3.5 0.1,-5.2c0,-2.9 -0.1,-5.7 -0.4,-8.5c-0.2,-2.9 -0.3,-5.7 -0.3,-8.5c0,-1.9 0.2,-3.7 0.6,-5.5c0.3,-1.8 0.5,-3.6 0.5,-5.5c0,0 0,-0.1 0,-0.2c0,-0.9 -0.1,-1.8 -0.4,-2.7c0,0 0,0 0,0c-0.7,-2 -1.4,-4 -1.8,-6c-0.4,-1.5 -0.6,-2.9 -0.8,-4.4c-0.2,-2 -0.3,-4 -0.4,-5.9c0,-1.7 -0.1,-3.3 -0.1,-5c0,-1.6 0.2,-3.2 0.7,-4.8q0.6,-2.4 1.4,-4.7q0.9,-2.3 1.5,-4.7c0.5,-1.6 0.7,-3.2 0.7,-4.8c0,-3 -0.2,-6 -0.6,-9c-0.4,-2.9 -0.6,-5.9 -0.6,-8.9c0,-1.9 0.2,-3.8 0.6,-5.7c0.4,-1.9 0.6,-3.8 0.6,-5.7q0,-3 -1.2,-5.7q-1.2,-2.7 -1.2,-5.6c0,-0.9 0.2,-1.8 0.6,-2.6c0.1,-0.4 0.3,-0.7 0.5,-1.1c0.8,-1 1.1,-2.3 1.1,-3.6c0,0 0,0 0,0q0,-1.2 -1.1,-2.4q-0.9,-0.8 -1.1,-2.4c-0.1,-0.5 -0.1,-0.9 -0.1,-1.4c0,-1.4 0.1,-2.9 0.2,-4.4c0.1,-1.4 0.2,-2.9 0.2,-4.4c0,-0.9 0,-1.8 -0.1,-2.7q-0.2,-1.3 -0.6,-2.4c-0.2,-0.7 -0.4,-1.3 -0.7,-1.8c-0.5,-0.8 -1.1,-1.6 -1.7,-2.3c-0.6,-0.6 -1.2,-1.2 -1.9,-1.7c-1.4,-0.9 -3,-1.6 -4.6,-2c-1,-0.2 -2,-0.4 -2.9,-0.7c-0.6,-0.2 -1.2,-0.3 -1.8,-0.5c-0.5,-0.2 -1.1,-0.4 -1.7,-0.6q-0.8,-0.4 -1.5,-0.8c-0.1,0 -0.2,-0.1 -0.4,-0.1c-0.7,-0.5 -1.2,-1.2 -1.3,-2.1c-0.1,-0.3 -0.1,-0.6 -0.1,-0.9c0,-0.6 0.1,-1.2 0.4,-1.7q0.3,-0.6 0.8,-1.2c0.3,-0.3 0.6,-0.7 0.9,-1c0.7,-0.6 1.5,-1.2 2.2,-1.8q1.2,-0.9 2.6,-1.7c0.2,-0.1 0.4,-0.2 0.6,-0.3c1.3,-0.9 2.8,-1.6 4.2,-2.4c0.9,-0.5 1.9,-0.9 2.8,-1.4c1.2,-0.6 2.4,-1.1 3.6,-1.7c1.2,-0.5 2.3,-1.1 3.4,-1.6c0.8,-0.3 1.5,-0.7 2.3,-1q0.9,-0.4 1.7,-0.8c0.5,-0.2 1,-0.4 1.5,-0.7c0.3,-0.1 0.5,-0.2 0.8,-0.3q1.5,-0.8 1.8,-1.1c0.2,0.3 0.4,0.6 0.7,0.8c0.2,0.3 0.5,0.5 0.9,0.6c0.5,0.1 0.9,0.3 1.4,0.3c0.3,0.1 0.6,0.1 0.9,0.1q1.2,0.1 2.4,0.1c0.4,0 0.7,0 1,0q0.6,0.1 1.2,0.3c0.3,0.1 0.6,0.2 0.9,0.3q0.4,0.2 0.8,0.4c0.1,0.2 0.3,0.3 0.5,0.4c0.4,0.5 0.9,1 1.4,1.5c0.1,0.2 0.4,0.4 0.6,0.6q0.3,0.3 0.7,0.6c0.2,0.1 0.3,0.2 0.5,0.3q1,0.6 3.1,1.2c0.1,0 0.3,0.1 0.4,0.1q4,1 6.5,2.7c0.7,0.4 1.3,0.9 1.9,1.5c0.9,0.8 1.6,1.8 2,3q0.9,2.4 0.9,5.8c0,1.1 -0.1,2.1 -0.3,3.2c-0.2,1 -0.3,2.1 -0.3,3.1zm-13.3,29c0,-1.7 -0.3,-3.5 -0.7,-5.2c-0.1,-0.1 -0.1,-0.3 -0.1,-0.4c-0.5,-1.8 -1.7,-3.4 -3.4,-4.3c0,0 -0.1,0 -0.1,0q0,1.3 -0.1,2.7c0,0.9 0,1.7 0,2.6c0,0 0,0.1 0,0.1c0,1.6 0.2,3.1 0.6,4.6q0.7,2.3 3.6,2.4c0.1,-0.4 0.2,-0.8 0.2,-1.1l0,-1.4zm50.1,116.9l-0.2,-1.6c-0.2,0 -0.5,0 -0.7,0c-0.1,0 -0.2,0 -0.4,-0.1c-0.2,0 -0.4,0 -0.6,0c-0.2,0 -0.3,0 -0.5,0c-0.7,0 -1.4,0 -2.1,0.2c-0.8,0.1 -1.5,0.4 -2.2,0.7c-0.7,0.4 -1.3,1.1 -1.5,1.9q-0.2,0.5 -0.3,1.3c0,0.2 0,0.5 0,0.7l0,1.6c0.2,0 0.4,0 0.7,0c0.1,0.1 0.2,0.1 0.4,0.1c0.2,0 0.4,0 0.6,0.1c0.2,0 0.3,0 0.5,0c0.8,0 1.5,-0.1 2.3,-0.3c0.7,-0.1 1.4,-0.4 2.1,-0.7q1.7,-0.8 1.8,-3.3c0.1,-0.2 0.1,-0.4 0.1,-0.6zm64.1,18.9c0,-0.3 -0.1,-0.6 -0.3,-0.9q-0.2,-0.2 -0.5,-0.3c-0.1,-0.1 -0.2,-0.2 -0.3,-0.2c-0.3,-0.1 -0.5,-0.2 -0.7,-0.3q-0.6,-0.3 -1.1,-0.3c0,0 -0.1,0 -0.2,0q-0.4,0 -1.2,0.1c-0.5,0.1 -1.1,0.3 -1.6,0.5c-0.3,0.1 -0.5,0.2 -0.8,0.3c-0.2,0.1 -0.4,0.3 -0.6,0.4c-0.1,0.1 -0.2,0.2 -0.3,0.3c-0.2,0.2 -0.3,0.4 -0.3,0.7c0,0.4 0.2,0.7 0.5,0.8q0.2,0.1 0.4,0.2c0.2,0.1 0.3,0.1 0.5,0.1c0.2,0.1 0.4,0.1 0.7,0.1q0.9,0.1 1.4,0.1q0.8,0 2.6,-0.3q1.2,-0.2 1.6,-0.7c0.2,-0.2 0.2,-0.4 0.2,-0.6z"/>
  <path fill="#cc66cc" id="o1" d="m166.44999,247.8l0,-1.6c0,-0.2 -0.1,-0.4 -0.1,-0.5q-0.1,-0.3 -0.2,-0.5c-0.1,-0.1 -0.1,-0.2 -0.2,-0.3c-0.3,-0.5 -0.6,-1 -0.9,-1.4c-0.2,-0.3 -0.4,-0.5 -0.6,-0.8c-0.2,-0.1 -0.3,-0.3 -0.5,-0.4c0,-0.1 -0.1,-0.1 -0.1,-0.2q-0.4,-0.3 -0.5,-0.3c0,0 0,0 0,0c0,0 -0.1,0 -0.1,0q-0.1,0 -0.2,0c0,0.1 0,0.1 0,0.1q0.1,-1 0.5,-2.8c0.1,-0.4 0.2,-0.8 0.3,-1.2c0.4,-1.6 0.8,-3.2 1.3,-4.9c0.1,-0.2 0.2,-0.4 0.2,-0.7c0.3,-0.9 0.6,-1.8 0.9,-2.7c0.3,-0.9 0.6,-1.7 0.9,-2.5c0.1,-0.4 0.3,-0.7 0.4,-1.1q0.6,-1.5 1.2,-2.1c0,0 0,0 0,0c0.6,-0.5 1.2,-1 1.7,-1.5c0.4,-0.4 0.7,-1 0.8,-1.6c0,-0.2 0,-0.4 0,-0.5c0,-0.9 -0.1,-1.8 -0.2,-2.6c0,-0.9 -0.1,-1.7 -0.1,-2.6c0,-0.2 0,-0.4 0,-0.6q0.1,-1 0.3,-1.4c0.1,0 0.1,-0.1 0.1,-0.1c0.2,-0.1 0.4,-0.2 0.6,-0.3q0.3,-0.1 0.6,-0.1c0.5,0 1,0 1.5,-0.2c0.2,0 0.3,-0.1 0.5,-0.2q0.3,-0.4 0.7,-1c0.1,-0.1 0.2,-0.2 0.2,-0.3c0.6,-1.1 1.1,-2.1 1.7,-3.2c0.3,-0.6 0.6,-1.1 0.9,-1.7c0.7,-1.2 1.4,-2.4 2.2,-3.5c0.2,-0.2 0.3,-0.5 0.5,-0.7c1,-1.3 2.1,-2.5 3.4,-3.5c0.7,-0.6 1.3,-1.1 2.1,-1.6q1.2,-0.8 2.6,-1.5c1.2,-0.7 2.3,-1.5 3.4,-2.3c0.4,-0.3 0.8,-0.6 1.2,-0.9c1.5,-1.3 3.1,-2.6 4.6,-3.8q2.3,-1.9 4.8,-3.3c1.6,-0.8 3.3,-1.3 5.2,-1.3q3.9,0 7.7,-1.4q3.7,-1.4 7.5,-2.1c4,-0.6 8,-1.1 11.9,-1.7c4,-0.5 8.1,-0.8 12.1,-0.8c0.9,0 1.8,0.1 2.8,0.2q2.4,0.2 5.4,0.9q4.9,1.1 9.9,2.9c2.8,0.9 5.5,2 8.1,3.3c0.5,0.2 1,0.4 1.4,0.6q3.4,1.7 5.7,3.3c0.5,0.4 1,0.7 1.4,1.1l0,0.5c0,1.1 -0.1,2.2 -0.4,3.3c-0.1,0.3 -0.2,0.6 -0.3,0.8c-0.3,1 -0.5,1.9 -0.7,2.9c0,0.5 0,0.9 0,1.3l0,0.6c0,0 0,0.1 0,0.1q0,0.2 0.2,0.2c0,0 0,0 0.1,0c1.6,0 3.2,-0.2 4.7,-0.7c1.6,-0.4 3.2,-0.6 4.8,-0.6c0,0.4 0.1,0.9 0.3,1.3c0.3,0.9 1,1.7 1.9,2c1.2,0.6 2.5,1.2 3.8,1.7c0.5,0.2 1,0.6 1.5,1q0.9,0.8 1.8,2.1c0.7,1 1.3,2 1.8,3.1c0.4,0.7 0.7,1.3 1,2c0.9,1.9 1.8,3.8 2.6,5.7c0.3,0.6 0.6,1.3 0.9,1.9q0.5,0.9 1,1.7c0.1,0.3 0.3,0.6 0.5,0.9c0.4,0.6 0.8,1.3 1.1,1.9q0.6,1.1 1,2.3c0,0 0,0 0,0c0.7,1.6 1.2,3.3 1.7,5c0.4,1.8 0.7,3.5 0.9,5.2c0.1,1 0.2,1.9 0.3,2.8c0,0.7 0,1.3 0,2c0,0.7 0,1.4 -0.2,2.2q-0.2,1.2 -0.6,2.2c-0.1,0.1 -0.2,0.3 -0.3,0.5q-1.1,2 -2.4,3.5c-0.5,0.6 -1.1,1.3 -1.6,1.9c-0.3,0.3 -0.5,0.7 -0.8,1.1q-1.1,1.4 -1.1,3.1c0,0.7 0.1,1.3 0.4,1.9q0.5,0.9 1.2,1.6c0,0 0.1,0 0.2,0q0.2,-0.1 0.8,-0.2c0.1,0 0.2,-0.1 0.2,-0.1q1,-0.1 1,-0.8c0,0 0,0 0,0l0,-0.2c0,-0.6 -0.2,-1.1 -0.5,-1.6c-0.1,-0.2 -0.3,-0.4 -0.5,-0.6c-0.6,-0.7 -0.9,-1.6 -0.9,-2.5q0,-0.3 0.3,-0.9q0.2,-0.6 0.6,-0.7c0,0 0.1,0 0.1,0c0.3,0 0.5,0.1 0.8,0.2q0.2,0.2 0.5,0.4c0.2,0.2 0.3,0.3 0.5,0.5q0.8,1.1 1.6,2.3c0.2,0.3 0.4,0.6 0.6,0.9q0.4,0.7 0.7,1.3c0,0 0,0.1 0.1,0.1q0.3,0.7 0.3,0.5c0,0 0,0 0,0l-0.1,-0.2q0.1,0.5 0.2,0.9c0,0.1 0,0.2 0,0.4c0,0.2 0.1,0.4 0.1,0.6c0,0.2 0,0.3 0,0.5c0,1.3 -0.2,2.6 -0.7,3.8c0,0 0,0 0,0c-0.2,0.6 -0.4,1.1 -0.6,1.6q-0.4,0.8 -0.7,1.4c-0.1,0.1 -0.1,0.1 -0.1,0.2c-0.2,0.3 -0.4,0.6 -0.6,0.9q-0.3,0.5 -0.6,0.8c-0.1,0.2 -0.2,0.3 -0.3,0.5q-0.6,0.7 -0.7,0.9c0,0.1 0,0.1 0,0.1c0,0.6 0.1,1.1 0.3,1.6q0.2,0.6 0.6,1.3c0,0.1 0,0.1 0.1,0.2c0.6,1 0.9,2.3 0.9,3.5c0,0.1 0,0.3 0,0.4c-0.1,0.4 -0.3,0.6 -0.6,0.8c-0.5,0.2 -0.9,0.3 -1.4,0.3c-0.3,0 -0.6,0 -0.9,-0.1q-0.8,0 -1.3,-0.2c0.1,1.8 0.3,3.6 0.5,5.4c0.2,1.8 0.4,3.6 0.4,5.4q0,4.3 -0.8,5.5q-0.8,1.2 -1.7,1.5c0,0 0,0 0,0c-0.6,0.2 -1.2,0.5 -1.7,0.7c-0.2,0.1 -0.3,0.2 -0.4,0.4q-0.4,0.7 -0.4,2.3c0,0.3 -0.1,0.6 -0.2,0.9q-0.3,0.8 -1,1.7c-0.2,0.3 -0.4,0.5 -0.6,0.8c-0.8,0.8 -1.5,1.5 -2.3,2.3c-0.7,0.6 -1.4,1.2 -2.1,1.8c-1.5,1.1 -3,2.2 -4.6,3.1c-0.3,0.2 -0.5,0.3 -0.7,0.4c-0.5,0.2 -0.9,0.5 -1.4,0.7q-1.8,0.8 -2.9,0.8c-0.2,0 -0.3,-0.1 -0.4,-0.1q-0.2,0 -0.4,-0.1c-0.1,0 -0.2,-0.1 -0.3,-0.1c0,0.5 0.1,1 0.1,1.5c0,0.3 0.1,0.6 0.1,1q0.1,1.3 0.1,2.5c0,0.3 0,0.6 0,0.9q-0.3,1.1 -1.1,1.6q-1.2,0.7 -2.7,1.3c-0.7,0.3 -1.5,0.7 -2.2,1.2q-1,0.7 -2,1.5c-0.1,0.1 -0.2,0.2 -0.3,0.3c-1.6,1.3 -3.2,2.7 -4.9,4c-1.3,1.1 -2.6,2.1 -4,3c-0.4,0.2 -0.7,0.4 -1,0.6c-1,0.6 -2.2,1.1 -3.4,1.3c-0.6,0.2 -1.3,0.2 -2,0.2q-2.3,0 -4.3,-1.2c-0.9,-0.5 -2,-0.9 -3.2,-1c-0.4,-0.1 -0.9,-0.1 -1.4,-0.1c-0.6,0 -1.1,0 -1.7,0.1q-0.9,0.1 -1.6,0.3c-0.2,0.1 -0.4,0.2 -0.6,0.2c-0.9,0.4 -1.7,0.8 -2.5,1.2c-0.2,0.1 -0.4,0.2 -0.5,0.3q-1.4,0.8 -2.9,1.5c-0.6,0.2 -1.3,0.4 -2,0.5c-0.4,0.1 -0.9,0.1 -1.4,0.1c-1.9,0 -3.9,-0.4 -5.7,-1.1c-0.6,-0.2 -1.3,-0.5 -1.9,-0.9c-1.4,-0.7 -2.8,-1.3 -4.2,-1.9c-1,-0.5 -2.1,-0.8 -3.1,-1.2q-2.1,-0.7 -4.4,-1.1c-1.4,-0.2 -2.9,-0.5 -4.3,-0.8c-0.1,0 -0.2,0 -0.2,0q-2.2,-0.4 -4.2,-1.4c-1.4,-0.6 -2.5,-1.6 -3.5,-2.7q-3,-3.8 -7.1,-6.3c-2.8,-1.7 -5.6,-3.2 -8.4,-4.7q-4.2,-2.2 -8.2,-4.6c-2.6,-1.6 -4.8,-3.6 -6.6,-6c-0.1,-0.1 -0.2,-0.3 -0.3,-0.4c-0.7,-1.1 -1.5,-2.1 -2.3,-3.2c-0.9,-1.1 -1.8,-2.3 -2.7,-3.4q-2.7,-3.6 -5.2,-7.6c-1.5,-2.6 -2.9,-5.2 -4,-8c-0.6,-1.7 -1.1,-3.4 -1.4,-5.1c-0.1,-1 -0.2,-2 -0.2,-3c0,-1.9 0.2,-3.8 0.6,-5.7c0.4,-1.9 0.8,-3.8 1.2,-5.7c0.5,-1.8 0.9,-3.7 1.3,-5.6c0.4,-1.9 0.6,-3.8 0.6,-5.7zm119.6,6.9l0,-1.5c0,-1 0,-1.9 -0.1,-2.9q-0.2,-2.1 -0.7,-4.6c-0.5,-3 -1.2,-5.9 -1.9,-8.8c-0.8,-3 -1.6,-5.9 -2.5,-8.8q-1.4,-4.3 -2.5,-7.7c-0.2,-0.5 -0.4,-1.1 -0.6,-1.6q-0.8,-2.3 -1.3,-3.8l-0.8,-2.1c-0.2,0.1 -0.4,0.1 -0.6,0.2q-0.7,0.1 -1.2,0.1c0,0 0,0 -0.1,0c-0.7,0 -1.4,0 -2.1,-0.2c-0.8,-0.2 -1.5,-0.4 -2.2,-0.8c-0.6,-0.4 -1.3,-0.7 -1.9,-1.1c-0.7,-0.4 -1.5,-0.7 -2.2,-1.1q-2.3,-1.2 -5.6,-2.2c-0.8,-0.3 -1.6,-0.4 -2.5,-0.6q-1.3,-0.2 -2.8,-0.3c-1.1,-0.1 -2.3,-0.1 -3.4,-0.1q-6,0 -11.8,-0.8q-5.9,-0.8 -11.9,-0.8c-5.4,-0.1 -10.6,1.2 -15.4,3.7c-4.7,2.5 -9,5.8 -12.6,9.8c-3.6,4.1 -6.5,8.7 -8.5,13.7c-1.8,4.4 -2.8,9.1 -3,13.8c0,0.5 -0.1,1.1 -0.1,1.6q0,3.2 0.2,7.5c0.1,2.9 0.3,5.8 0.7,8.7c0.3,2 0.7,3.9 1.2,5.9c0.3,0.7 0.5,1.4 0.7,2.1c0.3,0.9 0.7,1.8 1.2,2.6q1,1.9 2.5,3.1l0,4.1c0.3,0.3 0.7,0.5 1.1,0.6c0.1,0 0.3,0 0.4,0q1,0.1 1.9,0.1q1,0 1.7,0.2c0.3,0.1 0.5,0.3 0.7,0.4q0.3,0.4 0.5,0.9q1.5,4.2 3.7,6.9c0.4,0.5 0.8,0.9 1.3,1.3q3,2.9 6.6,4.9l7,3.9c1.4,0.9 2.8,1.9 4,3c0.9,0.9 1.7,1.8 2.4,2.8c0.6,0 1.2,-0.1 1.7,-0.1c0.3,-0.1 0.6,-0.1 0.8,-0.1c0.6,0 1.1,0 1.6,-0.1c0.3,0 0.6,0 0.9,0c3.1,0 6.1,0.2 9.2,0.7c3,0.4 6,0.7 9,0.6q4.8,0 8.7,-2.4c2.6,-1.7 4.9,-3.8 6.7,-6.3c0.4,-0.6 0.8,-1.2 1.2,-1.8q0.8,-1 1.4,-1.8c0.2,-0.2 0.4,-0.5 0.6,-0.7q1.5,-1.7 3,-3.3c1,-1 2.1,-2 3.2,-2.8c0.1,-0.1 0.1,-0.1 0.2,-0.1c0.4,-0.4 0.9,-0.7 1.4,-1.1q0.7,-0.5 1.4,-1c0.5,-0.4 1,-0.7 1.5,-1.1c0.2,-0.1 0.5,-0.3 0.7,-0.4q0.6,-0.5 1.4,-1c0.6,-0.5 1.3,-1 1.9,-1.5c0.2,-0.1 0.4,-0.3 0.6,-0.5c0.4,-0.4 0.9,-0.8 1.3,-1.2c0.3,-0.3 0.5,-0.7 0.8,-1c0.2,-0.2 0.4,-0.5 0.5,-0.7q0.2,-0.5 0.3,-0.9c0.1,-0.2 0.1,-0.3 0.1,-0.5c0,-0.9 -0.1,-1.8 -0.4,-2.7c-0.2,-0.8 -0.3,-1.7 -0.3,-2.6c0,-0.4 0,-0.8 0,-1.2q0.1,-0.6 0.2,-1.3c0.1,-0.4 0.1,-0.7 0.2,-1c0.3,-1.4 0.8,-2.7 1.4,-4c0.3,-0.7 0.7,-1.3 1.2,-1.9c0.4,-0.4 0.7,-0.8 1.1,-1.2c0.9,-0.7 1.9,-1.2 3,-1.2c0.2,-0.1 0.3,-0.1 0.5,-0.1c0.9,0 1.8,0.2 2.6,0.5c0.2,0.1 0.4,0.2 0.6,0.3c1,0.4 1.9,1 2.8,1.6c0,0 0.1,0.1 0.1,0.1q0.3,-1.4 0.3,-2.2c0,-0.3 0,-0.7 -0.1,-1q-0.3,-1.4 -1.6,-1.8c-0.7,-0.2 -1.4,-0.4 -2.1,-0.5c-0.6,-0.1 -1.2,-0.1 -1.9,-0.2c-1.4,-0.1 -2.9,-0.2 -4.3,-0.4c-0.5,-0.1 -0.9,-0.2 -1.3,-0.4q-1,-0.5 -1.5,-1.7c0,0 0,-0.1 -0.1,-0.1z"  transform="rotate(-122, 238.2, 255.75)"/>
  <path fill="#ff6633" id="T" d="m116.7,466.39999l4.2,0c0.5,0 1,0 1.4,0.1q0.7,0 1.4,0.1c0.5,0 1,0.1 1.5,0.1q2.6,0.3 5,1.1c0.9,0.3 1.8,0.7 2.6,1.2c0.6,0.4 1.1,0.7 1.5,1.2c1.1,0.9 1.7,2.2 1.7,3.6c0,0.1 0,0.2 0,0.2c0,1.6 -0.3,3.1 -0.9,4.6c-0.6,1.4 -0.9,3 -0.9,4.5c0,0.2 0,0.3 0.1,0.5q0,0.7 0.2,1.7c-0.7,0 -1.4,0.1 -2.1,0.3c-0.6,0.1 -1.2,0.4 -1.7,0.7c-0.8,0.4 -1.5,1.1 -1.9,1.9c-0.2,0.4 -0.4,0.8 -0.6,1.2c-1.9,-0.4 -3.9,-0.6 -5.9,-0.8q-3,-0.2 -5.9,-0.2q-7.5,0 -14.8,1.1q-7.3,1.1 -14.7,2.3q-7.4,1.3 -14.8,2.4q-7.4,1.1 -14.9,1.1c-0.4,0 -0.9,0 -1.3,0q-2.1,-0.1 -4.9,-0.2q-3.6,-0.1 -7,-1c-1.2,-0.3 -2.3,-0.7 -3.4,-1.2c-0.8,-0.5 -1.6,-0.9 -2.4,-1.5c-1.3,-1 -2.1,-2.4 -2.3,-4c-0.1,-0.4 -0.1,-0.9 -0.1,-1.4c0,-0.6 0,-1.2 0.1,-1.9q0.1,-2.6 0.7,-4.1c0.2,-0.4 0.3,-0.8 0.5,-1.2q0.4,-0.5 0.7,-0.9c0.2,-0.3 0.5,-0.5 0.8,-0.7c0.7,-0.5 1.5,-0.8 2.3,-0.9c0.1,0 0.3,-0.1 0.4,-0.1c1,-0.1 2,-0.3 3,-0.6c0.1,0 0.2,-0.1 0.2,-0.2q0.1,-0.2 0.2,-0.3c0,-0.1 0,-0.2 0,-0.3c0,-0.4 -0.1,-0.8 -0.4,-1.1c-0.1,-0.1 -0.1,-0.1 -0.2,-0.2c-0.4,-0.3 -0.9,-0.5 -1.3,-0.7c-0.1,-0.1 -0.1,-0.1 -0.1,-0.1q2.5,-2.2 5.6,-3.1q3.2,-0.8 6.5,-1.1c2.2,-0.2 4.4,-0.4 6.6,-0.6c1.8,-0.2 3.5,-0.5 5.2,-1.1c0.4,-0.1 0.8,-0.2 1.1,-0.4q1.2,-0.4 2.5,-2.5c0.7,-0.9 1.2,-2 1.7,-3c0.3,-0.5 0.5,-1 0.7,-1.5c0.7,-1.6 1.3,-3.2 1.8,-4.8c0,-0.1 0,-0.1 0,-0.2c0.1,-0.4 0.2,-0.9 0.3,-1.3q0.3,-1.2 0.3,-2c0.1,-0.2 0.1,-0.3 0.1,-0.5l0,-0.3c-0.7,-4.6 -1.2,-9.2 -1.7,-13.8c-0.3,-4.5 -0.5,-9.1 -0.5,-13.7q0,-0.6 0.4,-1.9c0,0 0,-0.1 0,-0.1c0.2,-0.7 0.5,-1.3 0.7,-2c0.2,-0.3 0.3,-0.6 0.5,-0.9c0.1,-0.4 0.3,-0.8 0.5,-1.2q0.4,-1.1 1.1,-2.4c-0.4,-0.6 -0.8,-1.2 -1.1,-1.9c-0.3,-0.5 -0.7,-1.1 -1,-1.6c-0.3,-0.6 -0.5,-1.2 -0.8,-1.8c-0.2,-0.4 -0.3,-0.7 -0.5,-1c-0.1,-0.2 -0.2,-0.4 -0.2,-0.6q-0.3,-0.7 -0.3,-1.2c-0.1,-0.1 -0.1,-0.2 -0.1,-0.3c0,-1.1 0.2,-2.3 0.6,-3.3c0.4,-1.1 0.7,-2.2 0.9,-3.3q0.9,-6.1 0.9,-12.4c0,-1.8 -0.1,-3.5 -0.4,-5.2q-0.4,-2.6 -0.9,-5.1q-1.9,-8.9 -1.9,-18.4c0,-7.4 0.4,-14.8 1.4,-22.2c1,-7.3 1.5,-14.7 1.5,-22.1c0,-0.7 -0.1,-1.5 -0.1,-2.2q-0.3,-2.2 -1.2,-3.7c-0.4,-0.6 -0.9,-1.1 -1.5,-1.6q-0.7,-0.5 -1.7,-1c-0.6,-0.3 -1.3,-0.5 -2,-0.7q-5.1,-1.5 -10.6,-2.3c-3.6,-0.6 -7.2,-0.9 -10.9,-0.9c-2,0 -4.1,0.1 -6.1,0.5c-0.8,0.1 -1.6,0.3 -2.5,0.4c-2.5,0.6 -4.9,1.4 -7.2,2.6c-0.3,0.2 -0.7,0.3 -1,0.5c-2.4,1.4 -4.5,3.3 -6.1,5.6c-1.2,1.7 -2,3.7 -2.3,5.8c-0.1,0.8 -0.1,1.6 -0.1,2.4c0,1.7 0.1,3.3 0.3,4.9c0.2,1.6 0.3,3.2 0.2,4.8c0.1,0.7 0,1.3 -0.1,1.9c-0.2,0.8 -0.4,1.5 -0.8,2.1c-0.3,0.5 -0.5,1 -0.7,1.5c-0.2,0.6 -0.3,1.2 -0.3,1.8c0,1.5 0.4,2.9 1.2,4.1q1.2,1.9 1.2,4.1c0,0.6 -0.1,1.1 -0.2,1.6q-0.1,0.8 -0.5,1.7c-0.3,0.9 -0.7,1.9 -1.2,2.9c-0.1,0.2 -0.2,0.4 -0.3,0.7q-0.9,1.8 -1.7,3.5q-0.8,1.8 -1.2,3.3c-0.3,0.7 -0.6,1.5 -1,2.2c-0.3,0.6 -0.6,1.1 -0.9,1.6c-0.6,0.7 -1.4,1.2 -2.3,1.4c-0.4,0.1 -0.9,0.2 -1.4,0.2c-1.2,0 -2.4,-0.4 -3.4,-1.1c-0.1,-0.1 -0.3,-0.2 -0.4,-0.3c-0.4,-0.3 -0.8,-0.7 -1.1,-1.2c-0.4,-0.6 -0.7,-1.4 -0.7,-2.2q0,-1.4 0.6,-2.3c0.1,-0.1 0.1,-0.2 0.2,-0.3c0.6,-0.6 0.8,-1.4 0.8,-2.2c0,0 0,-0.1 0,-0.1c0,-0.7 -0.1,-1.4 -0.3,-2.1c0,-0.3 -0.1,-0.6 -0.2,-0.9c-0.4,-1 -0.9,-2.1 -1.4,-3c0,-0.1 0,-0.1 0,-0.1c-0.6,-1 -1,-2 -1.4,-3.1c-0.4,-0.9 -0.5,-1.8 -0.6,-2.7c0,-0.2 0,-0.4 0,-0.5c0,-1.4 0.2,-2.7 0.6,-4c0.5,-1.3 0.7,-2.6 0.7,-3.9c0,-3 -0.5,-5.9 -1.4,-8.7q-1.4,-4.2 -1.4,-8.6q0,-4 0.9,-9.4c0.6,-3.6 1.6,-7.1 3,-10.4q2.1,-5 5.6,-8.4c2,-2.1 4.8,-3.3 7.8,-3.4c0.3,-0.1 0.6,-0.1 0.9,-0.1c2.4,0 4.9,0.3 7.2,0.8q3.6,0.8 7.4,0.8c2.9,0 5.7,-0.2 8.5,-0.7c2.8,-0.5 5.7,-0.7 8.5,-0.7c1.5,0 3,0.2 4.5,0.6c0.3,0.1 0.7,0.2 1,0.3c1.6,0.6 3.3,0.9 5,1c0.1,0 0.3,0 0.5,0q1.8,0 3,-0.8c0.7,-0.5 1.6,-0.8 2.5,-0.8c0.1,0 0.2,0 0.4,0c1.1,0 2.2,0.2 3.3,0.7c0,0 0.1,0.1 0.1,0.1c0.9,0.4 1.8,0.7 2.7,0.8c0.3,0 0.5,0 0.8,0q1.6,0 3,-0.5c0.9,-0.2 1.8,-0.4 2.8,-0.4c1.5,0 2.9,0.2 4.3,0.6c1.1,0.3 2.3,0.5 3.4,0.6c0.3,0 0.6,0 0.8,0l17.7,-2.2l7.9,-0.6q4,-0.3 8.1,-0.3c4.7,0 9.4,0.4 14,1.1c4.7,0.7 9.3,1.6 14,2.7l0,0.2c1.1,0.2 2.2,0.6 3.2,1.2c1.6,0.9 2.8,2.2 3.7,3.7c0.9,1.8 1.6,3.7 2.1,5.6c0.2,1.1 0.4,2.1 0.6,3.2c0.3,2.7 0.5,5.4 0.5,8.1c0,0.6 0,1.3 0,1.9c0,0.5 0,1.1 -0.1,1.7q0,3.9 0.2,6.9c0,0.1 0,0.1 0,0.2q0.5,5.5 1.1,11.2c0.5,3.7 0.7,7.4 0.7,11.2q0,2.6 -0.1,5.3q-0.1,2.7 -0.6,5.2c-0.1,0.4 -0.3,0.8 -0.4,1.2q-0.3,0.6 -0.6,1.2c-0.1,0.1 -0.2,0.3 -0.4,0.5c-0.6,1 -1.3,1.9 -2.2,2.7c0,0.1 -0.1,0.1 -0.2,0.2c-0.9,0.9 -1.9,1.7 -3,2.4c-0.3,0.2 -0.7,0.4 -1.1,0.5q-0.9,0.4 -1.8,0.4q-2.2,0 -2.8,-1.7c-0.3,-0.9 -0.5,-1.8 -0.6,-2.7c-0.1,-0.4 -0.2,-0.8 -0.2,-1.2c-0.1,-0.9 -0.3,-1.8 -0.5,-2.6c-0.1,-0.4 -0.2,-0.8 -0.4,-1.2q-0.6,-1.7 -3,-1.7q-0.7,0 -1.2,0.3c0,0 0,0 0,0c-0.2,0.1 -0.4,0.2 -0.7,0.2q-0.2,0.1 -0.6,0.1c0,0 0,0 0,0q-0.2,0 -0.5,-1.5c0,-0.1 0,-0.2 -0.1,-0.3c0,-0.5 -0.1,-0.9 -0.2,-1.4q-0.1,-0.6 -0.2,-1.4c-0.1,-0.4 -0.2,-0.9 -0.3,-1.4c-0.3,-1.7 -0.6,-3.4 -1,-5.1c-0.2,-0.6 -0.3,-1.2 -0.5,-1.8q-0.2,-0.9 -0.5,-1.6c-0.1,-0.3 -0.2,-0.6 -0.3,-0.9q-1.4,-2.8 -2.7,-5.8c-1,-2 -1.4,-4.2 -1.4,-6.4c0,-0.6 0,-1.3 0.1,-1.9c0.2,-0.7 0.4,-1.4 0.7,-2.1q0.9,-1.7 1.9,-3.1c0.7,-1 1.4,-2 2,-3c0.3,-0.6 0.6,-1.3 0.7,-2c0.1,-0.5 0.1,-1 0.1,-1.5q0,-2.9 -1.9,-5.1c-1.1,-1.3 -2.3,-2.3 -3.8,-3.1c-0.3,-0.2 -0.6,-0.4 -0.9,-0.5c-1.9,-0.9 -4,-1.6 -6,-2.1q-2.5,-0.5 -4.5,-0.6c-0.3,0 -0.7,0 -1,0c-2.6,0 -5.2,0.3 -7.7,0.9q-3.8,1 -7.5,2.3c-2.5,0.9 -4.9,1.8 -7.4,2.8c-2.4,0.9 -4.8,1.8 -7.3,2.5c0.5,1.3 0.8,2.8 0.9,4.2c0.2,1.5 0.3,3 0.3,4.4c0,3.3 -0.2,6.6 -0.5,9.9c-0.3,3.3 -0.4,6.6 -0.4,9.9c0,3.6 0.2,7.2 0.6,10.8q0.6,5.3 1.2,10.6q0.7,5.3 1.3,10.6c0.3,3.5 0.5,7.1 0.5,10.6c0,4.3 -0.7,8.6 -2.2,12.6q-0.4,1.1 -0.4,1.8c0,0.1 0,0.1 0,0.1c0,1.1 0.2,2.1 0.7,3.1c0,0 0,0 0,0.1c0.4,0.6 0.7,1.3 1,2c0.3,0.4 0.5,0.8 0.7,1.2q1,1.7 1.7,3.4q0.7,1.8 0.7,3.7c0,1.1 -0.2,2.3 -0.5,3.4c-0.4,0.8 -0.6,1.8 -0.6,2.7c0,0.2 0,0.3 0,0.5c0,1.5 0.2,3.1 0.6,4.5q0.7,2.2 0.7,4.6c0,0.2 0,0.3 0,0.5q-0.1,0.6 -0.4,0.9c-0.1,0.1 -0.2,0.1 -0.3,0.2c-0.2,0.1 -0.5,0.2 -0.8,0.2c-0.2,0.1 -0.5,0.1 -0.7,0.1c-0.2,0 -0.4,0 -0.6,0q-0.4,0 -0.7,0c-0.1,0 -0.2,0 -0.3,0.1q-0.5,0 -0.6,0.5c0,0.1 0,0.2 0,0.3c0,1.4 0.3,2.8 0.9,4.1c0.7,1.3 1,2.8 1,4.2c0,1.2 -0.3,2.5 -0.8,3.6c-0.5,1.1 -0.8,2.3 -0.8,3.6q0,1.9 1.7,3.4q1.7,1.4 2.4,3.5q0.7,2.5 1.2,5.7q0.5,3.2 2.1,6.1c0.7,1.5 1.8,2.7 3.1,3.8c0.5,0.4 1.1,0.8 1.6,1.1c0.9,0.5 1.8,0.9 2.7,1.2q2.6,0.8 6.3,0.8c0.2,0 0.4,0 0.6,0z"/>
  <path fill="#cc66cc" id="o2" d="m168.39999,409.19999l0,-1.6c0,-0.2 0,-0.4 -0.1,-0.5q0,-0.3 -0.1,-0.5c-0.1,-0.1 -0.2,-0.2 -0.2,-0.3c-0.3,-0.5 -0.6,-1 -1,-1.4c-0.2,-0.3 -0.4,-0.5 -0.6,-0.8c-0.1,-0.1 -0.3,-0.3 -0.4,-0.4c-0.1,-0.1 -0.1,-0.1 -0.2,-0.2q-0.3,-0.3 -0.4,-0.3c-0.1,0 -0.1,0 -0.1,0c0,0 0,0 -0.1,0q-0.1,0 -0.1,0c0,0.1 -0.1,0.1 -0.1,0.1q0.2,-1 0.6,-2.8c0.1,-0.4 0.2,-0.8 0.3,-1.2c0.4,-1.6 0.8,-3.2 1.3,-4.9c0,-0.2 0.1,-0.4 0.2,-0.7c0.3,-0.9 0.6,-1.8 0.9,-2.7c0.3,-0.9 0.5,-1.7 0.9,-2.5c0.1,-0.4 0.2,-0.7 0.4,-1.1q0.6,-1.5 1.1,-2.1c0,0 0.1,0 0.1,0c0.5,-0.5 1.1,-1 1.6,-1.5c0.5,-0.4 0.7,-1 0.8,-1.6c0,-0.2 0.1,-0.4 0.1,-0.5c0,-0.9 -0.1,-1.8 -0.2,-2.6c-0.1,-0.9 -0.1,-1.7 -0.1,-2.6c0,-0.2 0,-0.4 0,-0.6q0,-1 0.3,-1.4c0,0 0.1,-0.1 0.1,-0.1c0.2,-0.1 0.4,-0.2 0.6,-0.3q0.3,-0.1 0.6,-0.1c0.5,0 1,0 1.4,-0.2c0.2,0 0.4,-0.1 0.5,-0.2q0.4,-0.4 0.8,-1c0.1,-0.1 0.1,-0.2 0.2,-0.3c0.5,-1.1 1.1,-2.1 1.6,-3.2c0.3,-0.6 0.6,-1.1 1,-1.7c0.6,-1.2 1.3,-2.4 2.1,-3.5c0.2,-0.2 0.4,-0.5 0.6,-0.7c1,-1.3 2.1,-2.5 3.3,-3.5c0.7,-0.6 1.4,-1.1 2.1,-1.6q1.2,-0.8 2.6,-1.5c1.2,-0.7 2.4,-1.5 3.5,-2.3c0.4,-0.3 0.8,-0.6 1.1,-0.9c1.6,-1.3 3.1,-2.6 4.7,-3.8q2.3,-1.9 4.7,-3.3c1.6,-0.8 3.4,-1.3 5.2,-1.3q4,0 7.7,-1.4q3.7,-1.4 7.6,-2.1c3.9,-0.6 7.9,-1.1 11.9,-1.7c4,-0.5 8,-0.8 12.1,-0.8c0.9,0 1.8,0.1 2.7,0.2q2.5,0.2 5.5,0.9q4.8,1.1 9.9,2.9c2.7,0.9 5.4,2 8.1,3.3c0.5,0.2 0.9,0.4 1.4,0.6q3.3,1.7 5.6,3.3c0.5,0.4 1,0.7 1.5,1.1l0,0.5c0,1.1 -0.2,2.2 -0.5,3.3c-0.1,0.3 -0.1,0.6 -0.2,0.8c-0.4,1 -0.6,1.9 -0.7,2.9c0,0.5 -0.1,0.9 -0.1,1.3l0,0.6c0,0 0,0.1 0,0.1q0.1,0.2 0.2,0.2c0,0 0.1,0 0.1,0c1.6,0 3.2,-0.2 4.8,-0.7c1.5,-0.4 3.1,-0.6 4.7,-0.6c0.1,0.4 0.2,0.9 0.4,1.3c0.3,0.9 1,1.7 1.8,2c1.3,0.6 2.6,1.2 3.9,1.7c0.5,0.2 1,0.6 1.4,1q1,0.8 1.8,2.1c0.7,1 1.3,2 1.9,3.1c0.3,0.7 0.7,1.3 1,2c0.9,1.9 1.7,3.8 2.6,5.7c0.3,0.6 0.6,1.3 0.9,1.9q0.5,0.9 0.9,1.7c0.2,0.3 0.4,0.6 0.6,0.9c0.4,0.6 0.8,1.3 1.1,1.9q0.5,1.1 1,2.3c0,0 0,0 0,0c0.7,1.6 1.2,3.3 1.6,5c0.4,1.8 0.8,3.5 1,5.2c0.1,1 0.2,1.9 0.2,2.8c0,0.7 0.1,1.3 0.1,2c0,0.7 -0.1,1.4 -0.2,2.1q-0.2,1.3 -0.7,2.3c0,0.1 -0.1,0.3 -0.2,0.5q-1.1,2 -2.5,3.5c-0.5,0.6 -1,1.3 -1.5,1.9c-0.3,0.3 -0.6,0.7 -0.9,1.1q-1.1,1.4 -1.1,3.1c0,0.7 0.2,1.3 0.5,1.9q0.4,0.9 1.1,1.6c0.1,0 0.2,0 0.2,0q0.3,-0.1 0.9,-0.2c0,0 0.1,-0.1 0.2,-0.1q0.9,-0.1 0.9,-0.8c0,0 0,0 0,0l0,-0.2c0,-0.6 -0.1,-1.1 -0.4,-1.6c-0.2,-0.2 -0.3,-0.4 -0.5,-0.6c-0.6,-0.7 -1,-1.6 -1,-2.5q0,-0.3 0.3,-0.9q0.3,-0.6 0.7,-0.7c0,0 0,0 0.1,0c0.2,0 0.5,0.1 0.7,0.2q0.3,0.2 0.6,0.4c0.1,0.2 0.3,0.3 0.4,0.5q0.9,1.1 1.7,2.3c0.2,0.3 0.4,0.6 0.5,0.9q0.5,0.7 0.7,1.3c0.1,0 0.1,0.1 0.1,0.1q0.4,0.7 0.4,0.5c0,0 0,0 0,0l-0.2,-0.2q0.1,0.5 0.2,0.9c0,0.1 0,0.2 0.1,0.4c0,0.2 0,0.4 0,0.6c0,0.2 0,0.3 0,0.5c0,1.3 -0.2,2.6 -0.6,3.8c0,0 0,0 0,0c-0.2,0.6 -0.4,1.1 -0.7,1.6q-0.3,0.8 -0.7,1.4c0,0.1 -0.1,0.1 -0.1,0.2c-0.2,0.3 -0.4,0.6 -0.6,0.9q-0.3,0.5 -0.5,0.8c-0.1,0.2 -0.2,0.3 -0.4,0.5q-0.5,0.7 -0.6,0.9c0,0.1 0,0.1 0,0.1c0,0.6 0.1,1.1 0.3,1.6q0.2,0.6 0.5,1.3c0.1,0.1 0.1,0.1 0.1,0.2c0.7,1 1,2.3 1,3.5c0,0.1 0,0.3 -0.1,0.4c0,0.4 -0.3,0.6 -0.6,0.8c-0.4,0.2 -0.9,0.3 -1.4,0.3c-0.3,0 -0.6,0 -0.9,-0.1q-0.7,0 -1.3,-0.2c0.1,1.8 0.3,3.6 0.6,5.4c0.2,1.8 0.3,3.6 0.3,5.4q0,4.3 -0.8,5.5q-0.8,1.2 -1.6,1.5c0,0 -0.1,0 -0.1,0c-0.5,0.2 -1.1,0.5 -1.7,0.7c-0.1,0.1 -0.3,0.2 -0.4,0.4q-0.4,0.7 -0.4,2.3c0,0.3 0,0.6 -0.1,0.9q-0.3,0.8 -1.1,1.7c-0.2,0.3 -0.4,0.5 -0.6,0.8c-0.7,0.8 -1.5,1.5 -2.2,2.3c-0.7,0.6 -1.5,1.2 -2.2,1.8c-1.4,1.1 -3,2.2 -4.6,3.1c-0.2,0.2 -0.4,0.3 -0.7,0.4c-0.4,0.2 -0.9,0.5 -1.4,0.7q-1.7,0.8 -2.9,0.8c-0.1,0 -0.2,-0.1 -0.3,-0.1q-0.2,0 -0.4,-0.1c-0.1,0 -0.2,-0.1 -0.3,-0.1c0,0.5 0,1 0.1,1.5c0,0.3 0,0.6 0,1q0.2,1.3 0.2,2.5c0,0.3 0,0.6 -0.1,0.9q-0.2,1.1 -1.1,1.6q-1.2,0.7 -2.6,1.3c-0.8,0.3 -1.5,0.7 -2.2,1.2q-1,0.7 -2.1,1.5c-0.1,0.1 -0.2,0.2 -0.3,0.3c-1.6,1.3 -3.2,2.7 -4.8,4c-1.3,1.1 -2.7,2.1 -4.1,3c-0.3,0.2 -0.6,0.4 -0.9,0.6c-1.1,0.6 -2.2,1.1 -3.4,1.3c-0.7,0.2 -1.3,0.2 -2,0.2q-2.3,0 -4.3,-1.2c-1,-0.5 -2.1,-0.9 -3.2,-1c-0.5,-0.1 -1,-0.1 -1.4,-0.1c-0.6,0 -1.2,0 -1.7,0.1q-0.9,0.1 -1.7,0.3c-0.2,0.1 -0.4,0.2 -0.6,0.2c-0.8,0.4 -1.6,0.8 -2.4,1.2c-0.2,0.1 -0.4,0.2 -0.6,0.3q-1.4,0.8 -2.8,1.5c-0.7,0.2 -1.3,0.4 -2,0.5c-0.5,0.1 -0.9,0.1 -1.4,0.1c-2,0 -3.9,-0.4 -5.7,-1.1c-0.7,-0.2 -1.3,-0.5 -1.9,-0.9c-1.4,-0.7 -2.8,-1.3 -4.2,-1.9c-1.1,-0.5 -2.1,-0.8 -3.2,-1.2q-2,-0.7 -4.3,-1.1c-1.5,-0.2 -2.9,-0.5 -4.3,-0.8c-0.1,0 -0.2,0 -0.3,0q-2.2,-0.4 -4.2,-1.4c-1.3,-0.6 -2.5,-1.6 -3.4,-2.7q-3.1,-3.8 -7.2,-6.3c-2.7,-1.7 -5.5,-3.2 -8.3,-4.7q-4.3,-2.2 -8.2,-4.6c-2.6,-1.6 -4.8,-3.6 -6.6,-6c-0.1,-0.1 -0.2,-0.3 -0.3,-0.4c-0.8,-1.1 -1.6,-2.1 -2.4,-3.2c-0.8,-1.1 -1.7,-2.3 -2.6,-3.4q-2.8,-3.6 -5.2,-7.6c-1.6,-2.6 -2.9,-5.2 -4,-8c-0.7,-1.7 -1.1,-3.4 -1.4,-5.1c-0.2,-1 -0.2,-2 -0.2,-3c0,-1.9 0.1,-3.8 0.5,-5.7c0.4,-1.9 0.9,-3.8 1.3,-5.7c0.4,-1.8 0.8,-3.7 1.2,-5.6c0.4,-1.9 0.6,-3.8 0.6,-5.7zm119.7,6.9l0,-1.5c0,-1 -0.1,-1.9 -0.1,-2.9q-0.2,-2.1 -0.7,-4.6c-0.6,-3 -1.2,-5.9 -2,-8.8c-0.8,-3 -1.6,-5.9 -2.5,-8.8q-1.3,-4.3 -2.5,-7.7c-0.2,-0.5 -0.3,-1.1 -0.5,-1.6q-0.8,-2.3 -1.4,-3.8l-0.7,-2.1c-0.2,0.1 -0.5,0.1 -0.7,0.2q-0.7,0.1 -1.1,0.1c-0.1,0 -0.1,0 -0.1,0c-0.7,0 -1.5,0 -2.2,-0.2c-0.7,-0.2 -1.5,-0.4 -2.1,-0.8c-0.7,-0.4 -1.3,-0.7 -2,-1.1c-0.7,-0.4 -1.4,-0.7 -2.1,-1.1q-2.3,-1.2 -5.6,-2.2c-0.8,-0.3 -1.7,-0.4 -2.5,-0.6q-1.3,-0.2 -2.9,-0.3c-1.1,-0.1 -2.2,-0.1 -3.3,-0.1q-6,0 -11.9,-0.8q-5.8,-0.8 -11.8,-0.8c-5.4,-0.1 -10.7,1.2 -15.4,3.7c-4.8,2.5 -9.1,5.8 -12.6,9.8c-3.6,4.1 -6.5,8.7 -8.5,13.7c-1.8,4.4 -2.9,9.1 -3.1,13.8c0,0.5 0,1.1 0,1.6q0,3.2 0.2,7.5c0,2.9 0.3,5.8 0.7,8.7c0.2,2 0.7,3.9 1.2,5.9c0.2,0.7 0.4,1.4 0.7,2.1c0.3,0.9 0.7,1.8 1.1,2.6q1.1,1.9 2.6,3.1l0,4.1c0.3,0.3 0.6,0.5 1,0.6c0.2,0 0.3,0 0.5,0q0.9,0.1 1.9,0.1q0.9,0 1.7,0.2c0.2,0.1 0.5,0.3 0.6,0.4q0.3,0.4 0.5,0.9q1.5,4.2 3.7,6.9c0.4,0.5 0.9,0.9 1.3,1.3q3.1,2.9 6.6,4.9l7.1,3.9c1.4,0.9 2.7,1.9 3.9,3c0.9,0.9 1.7,1.8 2.5,2.8c0.6,0 1.1,-0.1 1.7,-0.1c0.2,-0.1 0.5,-0.1 0.8,-0.1c0.5,0 1,0 1.6,-0.1c0.3,0 0.6,0 0.9,0c3,0 6.1,0.2 9.1,0.7c3,0.4 6,0.7 9,0.6q4.9,0 8.8,-2.4c2.6,-1.7 4.8,-3.8 6.6,-6.3c0.4,-0.6 0.9,-1.2 1.3,-1.8q0.7,-1 1.4,-1.8c0.2,-0.2 0.3,-0.5 0.5,-0.7q1.5,-1.7 3,-3.3c1.1,-1 2.2,-2 3.3,-2.8c0,-0.1 0.1,-0.1 0.1,-0.1c0.5,-0.4 1,-0.7 1.5,-1.1q0.6,-0.5 1.3,-1c0.5,-0.4 1,-0.7 1.5,-1.1c0.3,-0.1 0.5,-0.3 0.7,-0.4q0.7,-0.5 1.5,-1c0.6,-0.5 1.2,-1 1.8,-1.5c0.2,-0.1 0.4,-0.3 0.7,-0.5c0.4,-0.4 0.8,-0.8 1.2,-1.2c0.3,-0.3 0.6,-0.7 0.9,-1c0.2,-0.2 0.3,-0.5 0.5,-0.7q0.2,-0.5 0.3,-0.9c0,-0.2 0.1,-0.3 0.1,-0.5c0,-0.9 -0.2,-1.8 -0.4,-2.7c-0.3,-0.8 -0.4,-1.7 -0.4,-2.6c0,-0.4 0,-0.8 0.1,-1.2q0,-0.6 0.2,-1.3c0,-0.4 0.1,-0.7 0.2,-1c0.3,-1.4 0.7,-2.7 1.4,-4c0.3,-0.7 0.7,-1.3 1.2,-1.9c0.3,-0.4 0.7,-0.8 1.1,-1.2c0.8,-0.7 1.8,-1.2 2.9,-1.2c0.2,-0.1 0.4,-0.1 0.5,-0.1c0.9,0 1.8,0.2 2.7,0.5c0.2,0.1 0.4,0.2 0.6,0.3c0.9,0.4 1.9,1 2.7,1.6c0.1,0 0.1,0.1 0.2,0.1q0.3,-1.4 0.3,-2.2c0,-0.3 0,-0.7 -0.1,-1q-0.3,-1.4 -1.7,-1.8c-0.6,-0.2 -1.3,-0.4 -2,-0.5c-0.7,-0.1 -1.3,-0.1 -1.9,-0.2c-1.5,-0.1 -2.9,-0.2 -4.3,-0.4c-0.5,-0.1 -0.9,-0.2 -1.3,-0.4q-1.1,-0.5 -1.5,-1.7c-0.1,0 -0.1,-0.1 -0.1,-0.1z"/>
  <path fill="#ff6633" id="P" d="m381.3,408.8l0,-0.6l-0.2,-0.9l0,0.7q0,0.2 0.1,0.4c0,0.1 0,0.2 0.1,0.4c0,0.1 0,0.2 0.1,0.3q0.2,0.6 0.5,0.7c0,0 0.1,0 0.1,0c0.2,0 0.5,-0.1 0.7,-0.2q0.2,-0.2 0.5,-0.4c0,-0.1 0.1,-0.1 0.2,-0.2c0.1,-0.2 0.3,-0.3 0.5,-0.5c0.3,-0.2 0.6,-0.3 1,-0.3c0.4,0 0.8,0.1 1,0.4c0.1,0.1 0.1,0.2 0.2,0.3c0.2,0.3 0.3,0.7 0.5,1.1c0,0.2 0.1,0.4 0.1,0.6c0.2,0.6 0.3,1.3 0.3,1.9c0,0.1 0.1,0.3 0.1,0.4q0,0.7 0,1q0,4.2 -0.9,8.4c-0.6,2.8 -0.8,5.6 -0.8,8.4q0,4.3 -0.1,8.5q-0.1,4.1 -0.1,8.4c0,1.2 0,2.4 0.1,3.6q0.1,5.1 0.7,8.1c0.2,0.9 0.4,1.7 0.8,2.5q0.6,1.5 1.5,2.5c0.2,0.4 0.5,0.7 0.9,0.9c0.7,0.6 1.5,1.2 2.3,1.6q1.8,0.8 4.1,1.4c0.7,0.1 1.5,0.3 2.2,0.5q3.1,0.7 7.1,1.8c0.5,0.1 0.9,0.2 1.4,0.4c-0.1,0.4 -0.3,0.8 -0.3,1.3c-0.1,0.4 -0.1,0.8 -0.1,1.2q0,1.7 1.1,2.5c0.5,0.4 1.1,0.8 1.7,1.2c0.2,0.2 0.4,0.3 0.6,0.4q1.2,0.8 2.3,1.9q1.1,1 1.1,3.2c0,1.1 -0.4,2.2 -1.2,3.1c0,0.1 -0.1,0.2 -0.2,0.3q-1.5,1.4 -2.1,2.4c0,0.2 -0.1,0.3 -0.2,0.5q-0.5,1.2 -0.9,1.8q-0.4,0.5 -1.1,0.8c-0.2,0.1 -0.4,0.2 -0.6,0.2c-0.2,0.1 -0.4,0.2 -0.7,0.2q-1.1,0.2 -3.3,0.3c-0.1,0 -0.1,0.1 -0.2,0.1c-4.6,0.2 -9.3,0.4 -13.9,0.4q-2.7,0 -5.3,-0.1c-1.8,0 -3.6,-0.1 -5.4,-0.1c0,0 0,0 0,0c-4.6,0 -9.2,0.2 -13.8,0.5q-4.1,0.3 -8,1.3c-2.5,0.7 -5.2,1 -7.8,1c-0.1,0 -0.2,0 -0.3,0c-0.8,0 -1.6,0 -2.3,-0.2q-1.3,-0.2 -2.2,-0.7c-0.9,-0.4 -1.6,-1.1 -2.1,-1.9c-0.6,-0.9 -1,-2 -1.3,-3.1q-0.3,-1.3 -0.4,-2.9c0,-0.4 0,-0.8 0,-1.1q0,-4.3 1.9,-7.1q1.9,-2.9 4.7,-4.7c2,-1.3 4,-2.3 6.2,-3c1,-0.4 2.1,-0.8 3.2,-1.2c1,-0.3 1.9,-0.7 2.9,-1.1c0.8,-0.3 1.5,-0.6 2.2,-0.9q1.5,-0.7 2.6,-1.4c0.4,-0.2 0.7,-0.5 1,-0.8c0.6,-0.6 0.9,-1.4 0.9,-2.2c0,-1.2 -0.2,-2.3 -0.7,-3.4c-0.4,-1.1 -0.6,-2.2 -0.6,-3.4c0,-0.2 0,-0.3 0,-0.5q0.2,-1 0.7,-2.7c0.1,-0.2 0.2,-0.5 0.3,-0.7c0.4,-1.1 0.6,-2.1 0.8,-3.2q0.2,-1.5 0.2,-3.2c0,-0.2 0,-0.4 0,-0.5l0,-3.2c0,-1 0,-2.1 -0.1,-3.1c-0.3,-0.2 -0.6,-0.4 -0.8,-0.7q-0.3,-0.4 -0.5,-1.1c-0.2,-0.6 -0.4,-1.2 -0.5,-1.9c-0.1,-0.3 -0.2,-0.6 -0.2,-0.9q-0.2,-1.6 -0.2,-3.1l0,-2.4c0,-3.7 0.2,-7.4 0.7,-11.1c0.5,-3.7 0.7,-7.3 0.7,-11c0,-2.3 -0.1,-4.6 -0.4,-6.9c-0.3,-2.3 -0.4,-4.6 -0.4,-6.9q0,-0.7 0.2,-1.1c0.1,-0.1 0.2,-0.3 0.4,-0.4c-0.8,-0.5 -1.2,-1.4 -1.3,-2.3c-0.1,-0.2 -0.1,-0.4 -0.1,-0.6q0,-2.1 0.7,-3.8c0.4,-1.2 0.7,-2.4 0.7,-3.7c-0.1,-1.9 -0.2,-3.9 -0.6,-5.8q-0.6,-3 -1.3,-5.8q-0.6,-2.9 -1.2,-5.7c-0.3,-1.9 -0.5,-3.9 -0.5,-5.8c0,-1.2 0.2,-2.3 0.5,-3.4c0.4,-1.1 0.7,-2.2 1.1,-3.3l1,-3.4c0.3,-0.9 0.5,-1.9 0.5,-3c0,-0.2 0,-0.4 0,-0.5c0,-3.3 -0.3,-6.6 -0.9,-9.8c-0.7,-3.2 -1,-6.5 -1,-9.7c0,-0.6 0,-1.1 0.1,-1.6q0.2,-0.9 0.5,-1.5c0.2,-0.5 0.4,-0.9 0.8,-1.3c0.7,-0.7 1.5,-1.3 2.4,-1.9c0.2,-0.1 0.4,-0.2 0.6,-0.3c0.5,-0.3 1,-0.6 1.6,-0.9c0.4,-0.3 0.9,-0.5 1.4,-0.8c0.3,-0.2 0.6,-0.4 0.9,-0.7q0.4,-0.6 0.5,-1.4c0,-0.1 0,-0.2 0,-0.3c0,-0.6 -0.2,-1.1 -0.6,-1.4c-0.1,-0.2 -0.2,-0.3 -0.4,-0.4q-0.7,-0.5 -1.3,-0.7c-0.2,0 -0.3,0 -0.5,0q-2,0 -3.5,1.3c-0.9,0.9 -2.1,1.3 -3.4,1.3c-0.4,0 -0.8,-0.1 -1.1,-0.4q-0.3,-0.2 -0.6,-0.5c-0.1,-0.2 -0.3,-0.4 -0.4,-0.6q-0.9,-1.6 -2,-3.3q-1.1,-1.8 -2.5,-3.3c-0.4,-0.4 -0.8,-0.8 -1.3,-1c-0.6,-0.4 -1.3,-0.6 -2,-0.5c-1.1,0 -2.2,0.1 -3.3,0.4c-1,0.3 -2.1,0.4 -3.2,0.4c-0.3,0 -0.6,0 -0.9,0q-1,-0.1 -1.5,-0.6c-0.2,-0.1 -0.3,-0.2 -0.4,-0.4c-0.2,-0.3 -0.3,-0.7 -0.4,-1.1q-0.1,-0.4 -0.1,-1c0,-0.2 0,-0.4 0,-0.5q0,-0.8 0,-1.5q0.1,-0.7 0.1,-1.5q0,-1.1 -0.4,-2.4c-0.1,-0.3 -0.3,-0.6 -0.5,-0.8q-0.4,-0.4 -0.9,-0.5c-0.2,0 -0.5,-0.1 -0.7,-0.1c-0.6,0 -1.2,0.1 -1.7,0.3c0,0 0,0 0,0c1.1,-1.5 2.6,-2.7 4.4,-3.5c0.3,-0.2 0.6,-0.4 1,-0.5c2.3,-0.9 4.6,-1.7 7.1,-2.1q3.7,-0.8 7.6,-1.1c1.2,-0.1 2.4,-0.3 3.7,-0.5c1.1,-0.2 2.2,-0.4 3.3,-0.6c0.3,-0.1 0.6,-0.2 1,-0.3q0.6,-0.1 1.1,-0.2c0.3,0 0.6,0 1,-0.1c0.4,0 0.7,0 1.1,0c1.7,0 3.5,0.2 5.2,0.5c1.7,0.3 3.4,0.5 5.1,0.5c0.6,0 1.2,0 1.8,-0.1q1.5,-0.3 2.6,-1.1c0.9,-0.7 2,-1.1 3.2,-1.2c0.3,-0.1 0.6,-0.1 0.8,-0.1q1.2,0.6 3.1,1.4c0.4,0.2 0.7,0.3 1,0.4q1.1,0.4 1.9,0.4c0,0 0.1,0 0.2,0c3.3,0 6.6,-0.2 9.8,-0.6c3.2,-0.4 6.5,-0.5 9.7,-0.5c3.4,-0.1 6.9,0.4 10.2,1.3c3.3,1 6.5,2 9.8,3.2c3.2,1.2 6.5,2.3 9.7,3.5q4.9,1.8 10,2.6c0.9,0.2 1.8,0.5 2.7,0.9c0.2,0.2 0.5,0.3 0.7,0.5c1,0.6 1.9,1.2 2.8,2c0.2,0.1 0.4,0.2 0.5,0.4c1.1,0.9 2.1,1.9 3.2,2.8c0.4,0.5 0.9,0.9 1.4,1.3q0.6,0.6 1.2,1.1c0.1,0 0.2,0.1 0.2,0.1c1,0.8 1.8,1.6 2.5,2.6c0.3,0.3 0.6,0.7 0.8,1.1c0.9,1.4 1.7,2.8 2.5,4.2c0.8,1.4 1.7,2.7 2.6,4.1c0.8,1.1 1.8,2 2.8,2.8c0.3,0.2 0.6,0.4 0.8,0.6c1.2,0.8 2.1,1.8 2.8,2.9c0.2,0.3 0.3,0.6 0.5,0.8c0.8,1.7 1.3,3.4 1.6,5.2c0.4,1.9 0.6,3.7 0.7,5.6q0.1,2.6 0.1,4.7c0,0.1 0,0.2 0,0.3c0,0.7 0,1.5 0,2.2q0,1.3 -0.1,2.8c-0.1,1.8 -0.2,3.5 -0.5,5.3c0,0.1 0,0.3 0,0.4c-0.2,1.6 -0.5,3.3 -0.8,4.9c0,0.3 0,0.5 -0.1,0.7q-0.5,2.7 -1.2,4.8c-1.4,3.3 -3.2,6.3 -5.4,9.1c-2.2,2.7 -4,5.9 -5.2,9.2c-0.1,0.3 -0.2,0.6 -0.4,0.9q-0.6,0.8 -1.6,1.6c-0.1,0.2 -0.3,0.3 -0.5,0.4c-0.9,0.7 -1.8,1.4 -2.7,2c-0.6,0.5 -1.2,0.9 -1.8,1.2c-1.4,1 -2.9,1.8 -4.3,2.7c-0.2,0.1 -0.4,0.2 -0.6,0.4c-0.4,0.2 -0.8,0.4 -1.2,0.6q-1.2,0.7 -2.1,1.3c-0.1,0.1 -0.3,0.2 -0.5,0.3c-3.5,2.2 -7.1,4.1 -10.9,5.7c-1.9,0.8 -3.8,1.5 -5.8,2.1c-4.4,1.4 -8.9,2.2 -13.5,2.5c-1.5,0.1 -3,0.1 -4.5,0.1l-0.8,0c-0.5,-0.2 -1,-0.5 -1.4,-0.7q-1.5,-0.7 -2.5,-1c-0.4,-0.1 -0.7,-0.2 -1.1,-0.3q-1.2,-0.1 -2.7,-0.2c-0.2,0 -0.4,0 -0.6,0c-1.8,0 -3.6,0.1 -5.4,0.2c-1.7,0.1 -3.5,0.2 -5.2,0.4q-1.1,0.2 -4.1,1.1q-3,1 -6.2,2.2c-1,0.4 -2,0.8 -3.1,1.3c-0.9,0.3 -1.8,0.8 -2.7,1.2c-0.3,0.1 -0.6,0.3 -0.9,0.4q-1.6,1 -1.6,1.6m77.9,-58.5c0,-3.3 -0.3,-6.7 -0.9,-10c-0.5,-2.4 -1.1,-4.7 -2,-7c-1.4,-3.8 -3.3,-7.4 -5.8,-10.5c-0.8,-1 -1.5,-1.9 -2.4,-2.7c-3.3,-3.4 -7.2,-6.1 -11.5,-8c-0.5,-0.2 -1,-0.4 -1.4,-0.6q-7.7,-3.1 -17,-3.1l-4.4,0c-1.1,0 -2.1,0 -3.1,0.1c-1.1,0 -2.3,0 -3.4,0.1c-1.8,0.1 -3.6,0.2 -5.4,0.3c-0.6,0 -1.3,0.1 -1.9,0.1c-1.4,0.1 -2.7,0.3 -4.1,0.4c-1,0.1 -2,0.3 -2.9,0.4q-2.9,0.5 -5.2,1.2c-0.1,0 -0.3,0.1 -0.5,0.1q-2.4,0.8 -3.1,2q-0.7,1.1 -1.8,2.5c-0.3,0.5 -0.7,0.9 -1.1,1.4c-0.3,0.4 -0.6,0.8 -0.9,1.2q-0.8,1.5 -0.9,2.6c0,0.1 0,0.2 0,0.2c0,0.7 0.1,1.5 0.4,2.1c0.1,0.4 0.3,0.8 0.5,1.2c0.3,0.6 0.6,1.2 0.9,1.8c0.3,0.6 0.7,1.2 1,1.8c0.8,1.3 1.5,2.6 2.1,3.9c0.5,0.9 0.8,1.9 0.9,2.9c0,0.4 0.1,0.8 0.1,1.1q-1.2,0.2 -2.2,0.7c-0.5,0.2 -0.9,0.7 -1,1.2c-0.1,0.2 -0.1,0.4 -0.1,0.6c0,0.7 0.1,1.4 0.3,2.1q0.4,1.3 1.1,2.7c0.7,1.2 1.1,2.5 1.3,3.8c0.1,0.6 0.1,1.1 0.1,1.7c0,0.4 0,0.8 -0.1,1.2q-0.1,0.6 -0.3,1.1c-0.1,0.3 -0.3,0.6 -0.5,0.8c-0.3,0.5 -0.7,0.9 -1.2,1.3c-0.2,0.2 -0.4,0.4 -0.7,0.5c-0.5,0.4 -0.9,0.8 -1.4,1.1c-0.2,0.2 -0.3,0.3 -0.5,0.4c-0.5,0.4 -0.8,1 -0.8,1.7c-0.1,0.1 -0.1,0.1 -0.1,0.2q0,1.3 2,4.4c0.6,1.1 1.3,2.1 2,3.2c0.7,1.1 1.4,2.2 2.2,3.3c0.7,1.1 1.5,2.2 2.2,3.3c0.7,1 1.4,2 2,3c0.3,0.4 0.5,0.7 0.7,1q1.2,1.8 1.2,2.4c0,0 0.1,0 0.1,0.1c2.2,0.3 4.5,0.4 6.8,0.4c0.5,0 0.9,0 1.3,0q2.2,0 6,-0.2c1.7,-0.1 3.4,-0.2 5.2,-0.3c1.8,-0.1 3.6,-0.2 5.4,-0.3c1.8,-0.1 3.6,-0.2 5.4,-0.4c1.7,-0.1 3.3,-0.2 5,-0.4c0.7,-0.1 1.4,-0.1 2.1,-0.2q2.9,-0.3 4.3,-0.6c0.1,0 0.1,-0.1 0.2,-0.1q1.9,-0.4 2.6,-1.3l1.5,-1.8c0.4,-0.4 0.8,-0.8 1.2,-1.1c0.2,-0.1 0.4,-0.3 0.6,-0.4c0.3,-0.1 0.6,-0.3 0.8,-0.3q0.9,-0.3 2.1,-0.3c0.2,0 0.5,-0.1 0.7,-0.1c1.2,0.1 2.3,0 3.5,-0.2q1.9,-0.3 3.5,-1c0.2,-0.1 0.5,-0.2 0.7,-0.4c1.5,-0.7 2.8,-1.7 3.9,-2.8c0.4,-0.5 0.8,-1 1.2,-1.5q1.9,-2.7 2.7,-6.3c0.4,-1.8 0.6,-3.6 0.7,-5.4c0.1,-0.8 0.1,-1.5 0.1,-2.3zm-124.5,-47.7l0.8,-0.3c0.8,0 1.5,0.2 2.1,0.6c0,0 0.1,0.1 0.1,0.1c0.4,0.2 0.7,0.5 1,0.7c0.3,0.3 0.5,0.5 0.8,0.8c-0.3,0.4 -0.7,0.8 -1.1,1.2c-0.1,0 -0.1,0.1 -0.1,0.1c-0.5,0.4 -1,0.6 -1.6,0.6c-0.6,0 -1.1,-0.3 -1.5,-0.7c-0.1,-0.1 -0.1,-0.1 -0.2,-0.2c-0.2,-0.3 -0.4,-0.7 -0.5,-1c-0.1,-0.3 -0.1,-0.6 -0.1,-0.9c0,0 0,-0.1 0,-0.1q0,-0.1 0.1,-0.3c0.1,-0.1 0.1,-0.3 0.1,-0.4c0.1,-0.1 0.1,-0.1 0.1,-0.2zm46.6,106.2l0,0.1l0,0.5l0,-0.6z"/>
 </g>
</svg>